<mxfile host="Electron" agent="Mozilla/5.0 (Windows NT 10.0; Win64; x64) AppleWebKit/537.36 (KHTML, like Gecko) draw.io/26.0.9 Chrome/128.0.6613.186 Electron/32.2.5 Safari/537.36" version="26.0.9">
  <diagram id="C5RBs43oDa-KdzZeNtuy" name="Page-1">
    <mxGraphModel dx="1778" dy="1436" grid="0" gridSize="10" guides="1" tooltips="1" connect="1" arrows="1" fold="1" page="0" pageScale="1" pageWidth="827" pageHeight="1169" math="0" shadow="0">
      <root>
        <mxCell id="WIyWlLk6GJQsqaUBKTNV-0" />
        <mxCell id="WIyWlLk6GJQsqaUBKTNV-1" parent="WIyWlLk6GJQsqaUBKTNV-0" />
        <mxCell id="zkfFHV4jXpPFQw0GAbJ--0" value="User" style="swimlane;fontStyle=1;align=center;verticalAlign=top;childLayout=stackLayout;horizontal=1;startSize=31;horizontalStack=0;resizeParent=1;resizeLast=0;collapsible=1;marginBottom=0;rounded=0;shadow=0;strokeWidth=2;fontSize=25;" parent="WIyWlLk6GJQsqaUBKTNV-1" vertex="1">
          <mxGeometry x="441" y="-458" width="296" height="440" as="geometry">
            <mxRectangle x="230" y="140" width="160" height="26" as="alternateBounds" />
          </mxGeometry>
        </mxCell>
        <mxCell id="zkfFHV4jXpPFQw0GAbJ--1" value="userId:String" style="text;align=left;verticalAlign=top;spacingLeft=4;spacingRight=4;overflow=hidden;rotatable=0;points=[[0,0.5],[1,0.5]];portConstraint=eastwest;fontSize=25;strokeWidth=2;" parent="zkfFHV4jXpPFQw0GAbJ--0" vertex="1">
          <mxGeometry y="31" width="296" height="37" as="geometry" />
        </mxCell>
        <mxCell id="zkfFHV4jXpPFQw0GAbJ--2" value="name:String" style="text;align=left;verticalAlign=top;spacingLeft=4;spacingRight=4;overflow=hidden;rotatable=0;points=[[0,0.5],[1,0.5]];portConstraint=eastwest;rounded=0;shadow=0;html=0;fontSize=25;strokeWidth=2;" parent="zkfFHV4jXpPFQw0GAbJ--0" vertex="1">
          <mxGeometry y="68" width="296" height="37" as="geometry" />
        </mxCell>
        <mxCell id="zkfFHV4jXpPFQw0GAbJ--3" value="email:String" style="text;align=left;verticalAlign=top;spacingLeft=4;spacingRight=4;overflow=hidden;rotatable=0;points=[[0,0.5],[1,0.5]];portConstraint=eastwest;rounded=0;shadow=0;html=0;fontSize=25;strokeWidth=2;" parent="zkfFHV4jXpPFQw0GAbJ--0" vertex="1">
          <mxGeometry y="105" width="296" height="36" as="geometry" />
        </mxCell>
        <mxCell id="Pei02myCYMl1iP3rMed8-2" value="password:int" style="text;align=left;verticalAlign=top;spacingLeft=4;spacingRight=4;overflow=hidden;rotatable=0;points=[[0,0.5],[1,0.5]];portConstraint=eastwest;rounded=0;shadow=0;html=0;fontSize=25;strokeWidth=2;" parent="zkfFHV4jXpPFQw0GAbJ--0" vertex="1">
          <mxGeometry y="141" width="296" height="33" as="geometry" />
        </mxCell>
        <mxCell id="mNPfbvNHgH-7dLo6_KG_-19" value="role: String" style="text;align=left;verticalAlign=top;spacingLeft=4;spacingRight=4;overflow=hidden;rotatable=0;points=[[0,0.5],[1,0.5]];portConstraint=eastwest;rounded=0;shadow=0;html=0;fontSize=25;strokeWidth=2;" parent="zkfFHV4jXpPFQw0GAbJ--0" vertex="1">
          <mxGeometry y="174" width="296" height="40" as="geometry" />
        </mxCell>
        <mxCell id="mNPfbvNHgH-7dLo6_KG_-18" value="dateOfBirth: String" style="text;align=left;verticalAlign=top;spacingLeft=4;spacingRight=4;overflow=hidden;rotatable=0;points=[[0,0.5],[1,0.5]];portConstraint=eastwest;rounded=0;shadow=0;html=0;fontSize=25;strokeWidth=2;" parent="zkfFHV4jXpPFQw0GAbJ--0" vertex="1">
          <mxGeometry y="214" width="296" height="26" as="geometry" />
        </mxCell>
        <mxCell id="mNPfbvNHgH-7dLo6_KG_-17" value="address: String" style="text;align=left;verticalAlign=top;spacingLeft=4;spacingRight=4;overflow=hidden;rotatable=0;points=[[0,0.5],[1,0.5]];portConstraint=eastwest;rounded=0;shadow=0;html=0;fontSize=25;strokeWidth=2;" parent="zkfFHV4jXpPFQw0GAbJ--0" vertex="1">
          <mxGeometry y="240" width="296" height="33" as="geometry" />
        </mxCell>
        <mxCell id="mNPfbvNHgH-7dLo6_KG_-15" value="gender:String" style="text;align=left;verticalAlign=top;spacingLeft=4;spacingRight=4;overflow=hidden;rotatable=0;points=[[0,0.5],[1,0.5]];portConstraint=eastwest;rounded=0;shadow=0;html=0;fontSize=25;strokeWidth=2;" parent="zkfFHV4jXpPFQw0GAbJ--0" vertex="1">
          <mxGeometry y="273" width="296" height="36" as="geometry" />
        </mxCell>
        <mxCell id="mNPfbvNHgH-7dLo6_KG_-21" style="text;align=left;verticalAlign=top;spacingLeft=4;spacingRight=4;overflow=hidden;rotatable=0;points=[[0,0.5],[1,0.5]];portConstraint=eastwest;rounded=0;shadow=0;html=0;fontSize=25;strokeWidth=2;" parent="zkfFHV4jXpPFQw0GAbJ--0" vertex="1">
          <mxGeometry y="309" width="296" height="26" as="geometry" />
        </mxCell>
        <mxCell id="zkfFHV4jXpPFQw0GAbJ--4" value="" style="line;html=1;strokeWidth=2;align=left;verticalAlign=middle;spacingTop=-1;spacingLeft=3;spacingRight=3;rotatable=0;labelPosition=right;points=[];portConstraint=eastwest;fontSize=25;" parent="zkfFHV4jXpPFQw0GAbJ--0" vertex="1">
          <mxGeometry y="335" width="296" height="8" as="geometry" />
        </mxCell>
        <mxCell id="mNPfbvNHgH-7dLo6_KG_-13" value="Register(): bool" style="text;html=1;align=left;verticalAlign=middle;whiteSpace=wrap;rounded=0;fontSize=25;strokeWidth=2;" parent="zkfFHV4jXpPFQw0GAbJ--0" vertex="1">
          <mxGeometry y="343" width="296" height="30" as="geometry" />
        </mxCell>
        <mxCell id="Pei02myCYMl1iP3rMed8-3" value="Login(): bool" style="text;html=1;align=left;verticalAlign=middle;whiteSpace=wrap;rounded=0;fontSize=25;strokeWidth=2;" parent="zkfFHV4jXpPFQw0GAbJ--0" vertex="1">
          <mxGeometry y="373" width="296" height="30" as="geometry" />
        </mxCell>
        <mxCell id="mNPfbvNHgH-7dLo6_KG_-20" value="ValidateUser(): void" style="text;html=1;align=left;verticalAlign=middle;whiteSpace=wrap;rounded=0;fontSize=25;strokeWidth=2;" parent="zkfFHV4jXpPFQw0GAbJ--0" vertex="1">
          <mxGeometry y="403" width="296" height="37" as="geometry" />
        </mxCell>
        <mxCell id="G-upI68DP6zv-U2BLRxJ-17" style="edgeStyle=orthogonalEdgeStyle;rounded=1;orthogonalLoop=1;jettySize=auto;html=1;curved=0;strokeWidth=2;fontSize=25;entryX=0;entryY=0.5;entryDx=0;entryDy=0;" parent="WIyWlLk6GJQsqaUBKTNV-1" source="zkfFHV4jXpPFQw0GAbJ--6" target="mNPfbvNHgH-7dLo6_KG_-83" edge="1">
          <mxGeometry relative="1" as="geometry">
            <Array as="points">
              <mxPoint x="-232" y="1222" />
            </Array>
            <mxPoint x="67" y="1256" as="targetPoint" />
          </mxGeometry>
        </mxCell>
        <mxCell id="G-upI68DP6zv-U2BLRxJ-19" style="edgeStyle=orthogonalEdgeStyle;rounded=1;orthogonalLoop=1;jettySize=auto;html=1;entryX=0;entryY=0.5;entryDx=0;entryDy=0;curved=0;strokeWidth=2;fontSize=25;" parent="WIyWlLk6GJQsqaUBKTNV-1" source="zkfFHV4jXpPFQw0GAbJ--6" target="Pei02myCYMl1iP3rMed8-64" edge="1">
          <mxGeometry relative="1" as="geometry">
            <Array as="points">
              <mxPoint x="-282" y="1444" />
            </Array>
          </mxGeometry>
        </mxCell>
        <mxCell id="G-upI68DP6zv-U2BLRxJ-26" style="edgeStyle=orthogonalEdgeStyle;rounded=1;orthogonalLoop=1;jettySize=auto;html=1;entryX=0;entryY=0.5;entryDx=0;entryDy=0;strokeWidth=2;curved=0;fontSize=25;" parent="WIyWlLk6GJQsqaUBKTNV-1" source="zkfFHV4jXpPFQw0GAbJ--6" target="G-upI68DP6zv-U2BLRxJ-23" edge="1">
          <mxGeometry relative="1" as="geometry">
            <Array as="points">
              <mxPoint x="-330" y="1734" />
            </Array>
          </mxGeometry>
        </mxCell>
        <mxCell id="pbMIqYxpZXbtXTmgva8M-68" style="edgeStyle=orthogonalEdgeStyle;rounded=1;orthogonalLoop=1;jettySize=auto;html=1;entryX=0;entryY=0.5;entryDx=0;entryDy=0;strokeWidth=2;curved=0;fontSize=25;" parent="WIyWlLk6GJQsqaUBKTNV-1" source="zkfFHV4jXpPFQw0GAbJ--6" target="pbMIqYxpZXbtXTmgva8M-69" edge="1">
          <mxGeometry relative="1" as="geometry">
            <Array as="points">
              <mxPoint x="-379" y="2014" />
            </Array>
          </mxGeometry>
        </mxCell>
        <mxCell id="zkfFHV4jXpPFQw0GAbJ--6" value="Representative" style="swimlane;fontStyle=1;align=center;verticalAlign=top;childLayout=stackLayout;horizontal=1;startSize=36;horizontalStack=0;resizeParent=1;resizeLast=0;collapsible=1;marginBottom=0;rounded=0;shadow=0;strokeWidth=2;fontSize=25;" parent="WIyWlLk6GJQsqaUBKTNV-1" vertex="1">
          <mxGeometry x="-408" y="124" width="281" height="241" as="geometry">
            <mxRectangle x="130" y="380" width="160" height="26" as="alternateBounds" />
          </mxGeometry>
        </mxCell>
        <mxCell id="zkfFHV4jXpPFQw0GAbJ--7" value="contituency:String" style="text;align=left;verticalAlign=top;spacingLeft=4;spacingRight=4;overflow=hidden;rotatable=0;points=[[0,0.5],[1,0.5]];portConstraint=eastwest;fontSize=25;strokeWidth=2;" parent="zkfFHV4jXpPFQw0GAbJ--6" vertex="1">
          <mxGeometry y="36" width="281" height="37" as="geometry" />
        </mxCell>
        <mxCell id="zkfFHV4jXpPFQw0GAbJ--8" value="Stats: ObjectÂ " style="text;align=left;verticalAlign=top;spacingLeft=4;spacingRight=4;overflow=hidden;rotatable=0;points=[[0,0.5],[1,0.5]];portConstraint=eastwest;rounded=0;shadow=0;html=0;fontSize=25;strokeWidth=2;" parent="zkfFHV4jXpPFQw0GAbJ--6" vertex="1">
          <mxGeometry y="73" width="281" height="40" as="geometry" />
        </mxCell>
        <mxCell id="mNPfbvNHgH-7dLo6_KG_-24" style="text;align=left;verticalAlign=top;spacingLeft=4;spacingRight=4;overflow=hidden;rotatable=0;points=[[0,0.5],[1,0.5]];portConstraint=eastwest;rounded=0;shadow=0;html=0;fontSize=25;strokeWidth=2;" parent="zkfFHV4jXpPFQw0GAbJ--6" vertex="1">
          <mxGeometry y="113" width="281" height="26" as="geometry" />
        </mxCell>
        <mxCell id="mNPfbvNHgH-7dLo6_KG_-23" style="text;align=left;verticalAlign=top;spacingLeft=4;spacingRight=4;overflow=hidden;rotatable=0;points=[[0,0.5],[1,0.5]];portConstraint=eastwest;rounded=0;shadow=0;html=0;fontSize=25;strokeWidth=2;" parent="zkfFHV4jXpPFQw0GAbJ--6" vertex="1">
          <mxGeometry y="139" width="281" height="26" as="geometry" />
        </mxCell>
        <mxCell id="zkfFHV4jXpPFQw0GAbJ--9" value="" style="line;html=1;strokeWidth=2;align=left;verticalAlign=middle;spacingTop=-1;spacingLeft=3;spacingRight=3;rotatable=0;labelPosition=right;points=[];portConstraint=eastwest;fontSize=25;" parent="zkfFHV4jXpPFQw0GAbJ--6" vertex="1">
          <mxGeometry y="165" width="281" height="8" as="geometry" />
        </mxCell>
        <mxCell id="mNPfbvNHgH-7dLo6_KG_-26" value="ViewDetails(): void" style="text;align=left;verticalAlign=top;spacingLeft=4;spacingRight=4;overflow=hidden;rotatable=0;points=[[0,0.5],[1,0.5]];portConstraint=eastwest;fontStyle=0;fontSize=25;strokeWidth=2;" parent="zkfFHV4jXpPFQw0GAbJ--6" vertex="1">
          <mxGeometry y="173" width="281" height="33" as="geometry" />
        </mxCell>
        <mxCell id="mNPfbvNHgH-7dLo6_KG_-25" style="text;align=left;verticalAlign=top;spacingLeft=4;spacingRight=4;overflow=hidden;rotatable=0;points=[[0,0.5],[1,0.5]];portConstraint=eastwest;fontStyle=0;fontSize=25;strokeWidth=2;" parent="zkfFHV4jXpPFQw0GAbJ--6" vertex="1">
          <mxGeometry y="206" width="281" height="35" as="geometry" />
        </mxCell>
        <mxCell id="zkfFHV4jXpPFQw0GAbJ--12" value="" style="endArrow=block;endSize=10;endFill=0;shadow=0;strokeWidth=2;rounded=1;curved=0;edgeStyle=elbowEdgeStyle;elbow=vertical;fontSize=25;" parent="WIyWlLk6GJQsqaUBKTNV-1" source="zkfFHV4jXpPFQw0GAbJ--6" target="zkfFHV4jXpPFQw0GAbJ--0" edge="1">
          <mxGeometry width="160" relative="1" as="geometry">
            <mxPoint x="200" y="203" as="sourcePoint" />
            <mxPoint x="200" y="203" as="targetPoint" />
            <Array as="points">
              <mxPoint x="368" y="76" />
            </Array>
          </mxGeometry>
        </mxCell>
        <mxCell id="zkfFHV4jXpPFQw0GAbJ--16" value="" style="endArrow=block;endSize=10;endFill=0;shadow=0;strokeWidth=2;rounded=1;curved=0;edgeStyle=elbowEdgeStyle;elbow=vertical;fontSize=25;entryX=0.5;entryY=1;entryDx=0;entryDy=0;exitX=0.502;exitY=0.001;exitDx=0;exitDy=0;exitPerimeter=0;" parent="WIyWlLk6GJQsqaUBKTNV-1" source="yNUHk9VUofDZDF6CJBJu-0" target="zkfFHV4jXpPFQw0GAbJ--0" edge="1">
          <mxGeometry width="160" relative="1" as="geometry">
            <mxPoint x="532" y="115" as="sourcePoint" />
            <mxPoint x="530" y="36" as="targetPoint" />
            <Array as="points">
              <mxPoint x="828" y="76" />
            </Array>
          </mxGeometry>
        </mxCell>
        <mxCell id="zkfFHV4jXpPFQw0GAbJ--17" value="Complaint" style="swimlane;fontStyle=1;align=center;verticalAlign=top;childLayout=stackLayout;horizontal=1;startSize=36;horizontalStack=0;resizeParent=1;resizeLast=0;collapsible=1;marginBottom=0;rounded=0;shadow=0;strokeWidth=2;fontSize=25;" parent="WIyWlLk6GJQsqaUBKTNV-1" vertex="1">
          <mxGeometry x="200" y="418" width="303" height="472" as="geometry">
            <mxRectangle x="550" y="140" width="160" height="26" as="alternateBounds" />
          </mxGeometry>
        </mxCell>
        <mxCell id="zkfFHV4jXpPFQw0GAbJ--18" value="complaintId: String" style="text;align=left;verticalAlign=top;spacingLeft=4;spacingRight=4;overflow=hidden;rotatable=0;points=[[0,0.5],[1,0.5]];portConstraint=eastwest;fontSize=25;strokeWidth=2;" parent="zkfFHV4jXpPFQw0GAbJ--17" vertex="1">
          <mxGeometry y="36" width="303" height="33" as="geometry" />
        </mxCell>
        <mxCell id="zkfFHV4jXpPFQw0GAbJ--19" value="title:String" style="text;align=left;verticalAlign=top;spacingLeft=4;spacingRight=4;overflow=hidden;rotatable=0;points=[[0,0.5],[1,0.5]];portConstraint=eastwest;rounded=0;shadow=0;html=0;fontSize=25;strokeWidth=2;" parent="zkfFHV4jXpPFQw0GAbJ--17" vertex="1">
          <mxGeometry y="69" width="303" height="34" as="geometry" />
        </mxCell>
        <mxCell id="zkfFHV4jXpPFQw0GAbJ--20" value="description:String" style="text;align=left;verticalAlign=top;spacingLeft=4;spacingRight=4;overflow=hidden;rotatable=0;points=[[0,0.5],[1,0.5]];portConstraint=eastwest;rounded=0;shadow=0;html=0;fontSize=25;strokeWidth=2;" parent="zkfFHV4jXpPFQw0GAbJ--17" vertex="1">
          <mxGeometry y="103" width="303" height="34" as="geometry" />
        </mxCell>
        <mxCell id="zkfFHV4jXpPFQw0GAbJ--21" value="status:String" style="text;align=left;verticalAlign=top;spacingLeft=4;spacingRight=4;overflow=hidden;rotatable=0;points=[[0,0.5],[1,0.5]];portConstraint=eastwest;rounded=0;shadow=0;html=0;fontSize=25;strokeWidth=2;" parent="zkfFHV4jXpPFQw0GAbJ--17" vertex="1">
          <mxGeometry y="137" width="303" height="36" as="geometry" />
        </mxCell>
        <mxCell id="zkfFHV4jXpPFQw0GAbJ--22" value="category:String" style="text;align=left;verticalAlign=top;spacingLeft=4;spacingRight=4;overflow=hidden;rotatable=0;points=[[0,0.5],[1,0.5]];portConstraint=eastwest;rounded=0;shadow=0;html=0;fontSize=25;strokeWidth=2;" parent="zkfFHV4jXpPFQw0GAbJ--17" vertex="1">
          <mxGeometry y="173" width="303" height="49" as="geometry" />
        </mxCell>
        <mxCell id="zkfFHV4jXpPFQw0GAbJ--23" value="" style="line;html=1;strokeWidth=2;align=left;verticalAlign=middle;spacingTop=-1;spacingLeft=3;spacingRight=3;rotatable=0;labelPosition=right;points=[];portConstraint=eastwest;fontSize=25;" parent="zkfFHV4jXpPFQw0GAbJ--17" vertex="1">
          <mxGeometry y="222" width="303" height="8" as="geometry" />
        </mxCell>
        <mxCell id="zkfFHV4jXpPFQw0GAbJ--25" value="ValidateComplaint(): void" style="text;align=left;verticalAlign=top;spacingLeft=4;spacingRight=4;overflow=hidden;rotatable=0;points=[[0,0.5],[1,0.5]];portConstraint=eastwest;fontSize=25;strokeWidth=2;" parent="zkfFHV4jXpPFQw0GAbJ--17" vertex="1">
          <mxGeometry y="230" width="303" height="36" as="geometry" />
        </mxCell>
        <mxCell id="Pei02myCYMl1iP3rMed8-8" value="UpdateStatus() : void" style="text;align=left;verticalAlign=top;spacingLeft=4;spacingRight=4;overflow=hidden;rotatable=0;points=[[0,0.5],[1,0.5]];portConstraint=eastwest;fontSize=25;strokeWidth=2;" parent="zkfFHV4jXpPFQw0GAbJ--17" vertex="1">
          <mxGeometry y="266" width="303" height="39" as="geometry" />
        </mxCell>
        <mxCell id="mNPfbvNHgH-7dLo6_KG_-55" value="RegisterComplaint: void" style="text;align=left;verticalAlign=top;spacingLeft=4;spacingRight=4;overflow=hidden;rotatable=0;points=[[0,0.5],[1,0.5]];portConstraint=eastwest;fontSize=25;strokeWidth=2;" parent="zkfFHV4jXpPFQw0GAbJ--17" vertex="1">
          <mxGeometry y="305" width="303" height="38" as="geometry" />
        </mxCell>
        <mxCell id="mNPfbvNHgH-7dLo6_KG_-54" value="SetUrgencyFlag(): void" style="text;align=left;verticalAlign=top;spacingLeft=4;spacingRight=4;overflow=hidden;rotatable=0;points=[[0,0.5],[1,0.5]];portConstraint=eastwest;fontSize=25;strokeWidth=2;" parent="zkfFHV4jXpPFQw0GAbJ--17" vertex="1">
          <mxGeometry y="343" width="303" height="43" as="geometry" />
        </mxCell>
        <mxCell id="MwCf3yqxgivVvf109PhC-1" value="ForwardComplaint(): void" style="text;align=left;verticalAlign=top;spacingLeft=4;spacingRight=4;overflow=hidden;rotatable=0;points=[[0,0.5],[1,0.5]];portConstraint=eastwest;fontSize=25;strokeWidth=2;" vertex="1" parent="zkfFHV4jXpPFQw0GAbJ--17">
          <mxGeometry y="386" width="303" height="43" as="geometry" />
        </mxCell>
        <mxCell id="MwCf3yqxgivVvf109PhC-2" value="ShowComplaint():void" style="text;align=left;verticalAlign=top;spacingLeft=4;spacingRight=4;overflow=hidden;rotatable=0;points=[[0,0.5],[1,0.5]];portConstraint=eastwest;fontSize=25;strokeWidth=2;" vertex="1" parent="zkfFHV4jXpPFQw0GAbJ--17">
          <mxGeometry y="429" width="303" height="43" as="geometry" />
        </mxCell>
        <mxCell id="G-upI68DP6zv-U2BLRxJ-5" style="edgeStyle=orthogonalEdgeStyle;rounded=1;orthogonalLoop=1;jettySize=auto;html=1;entryX=1;entryY=0.5;entryDx=0;entryDy=0;strokeWidth=2;curved=0;fontSize=25;" parent="WIyWlLk6GJQsqaUBKTNV-1" source="yNUHk9VUofDZDF6CJBJu-0" target="Pei02myCYMl1iP3rMed8-13" edge="1">
          <mxGeometry relative="1" as="geometry">
            <Array as="points">
              <mxPoint x="1432" y="944" />
            </Array>
          </mxGeometry>
        </mxCell>
        <mxCell id="G-upI68DP6zv-U2BLRxJ-6" style="edgeStyle=orthogonalEdgeStyle;rounded=1;orthogonalLoop=1;jettySize=auto;html=1;entryX=1;entryY=0.5;entryDx=0;entryDy=0;strokeWidth=2;curved=0;fontSize=25;" parent="WIyWlLk6GJQsqaUBKTNV-1" source="yNUHk9VUofDZDF6CJBJu-0" target="mNPfbvNHgH-7dLo6_KG_-84" edge="1">
          <mxGeometry relative="1" as="geometry">
            <Array as="points">
              <mxPoint x="1489" y="1196" />
            </Array>
          </mxGeometry>
        </mxCell>
        <mxCell id="G-upI68DP6zv-U2BLRxJ-21" style="edgeStyle=orthogonalEdgeStyle;rounded=1;orthogonalLoop=1;jettySize=auto;html=1;entryX=1;entryY=0.5;entryDx=0;entryDy=0;strokeWidth=2;curved=0;fontSize=25;" parent="WIyWlLk6GJQsqaUBKTNV-1" source="yNUHk9VUofDZDF6CJBJu-0" target="Pei02myCYMl1iP3rMed8-62" edge="1">
          <mxGeometry relative="1" as="geometry">
            <Array as="points">
              <mxPoint x="1555" y="1368" />
            </Array>
          </mxGeometry>
        </mxCell>
        <mxCell id="G-upI68DP6zv-U2BLRxJ-27" style="edgeStyle=orthogonalEdgeStyle;rounded=1;orthogonalLoop=1;jettySize=auto;html=1;strokeWidth=2;curved=0;fontSize=25;entryX=1.006;entryY=0.763;entryDx=0;entryDy=0;entryPerimeter=0;" parent="WIyWlLk6GJQsqaUBKTNV-1" source="yNUHk9VUofDZDF6CJBJu-0" target="Pei02myCYMl1iP3rMed8-10" edge="1">
          <mxGeometry relative="1" as="geometry">
            <Array as="points">
              <mxPoint x="1614" y="1821" />
              <mxPoint x="1525" y="1821" />
            </Array>
          </mxGeometry>
        </mxCell>
        <mxCell id="pbMIqYxpZXbtXTmgva8M-71" style="edgeStyle=orthogonalEdgeStyle;rounded=1;orthogonalLoop=1;jettySize=auto;html=1;entryX=1;entryY=0.5;entryDx=0;entryDy=0;strokeWidth=2;curved=0;fontSize=25;" parent="WIyWlLk6GJQsqaUBKTNV-1" source="yNUHk9VUofDZDF6CJBJu-0" target="pbMIqYxpZXbtXTmgva8M-69" edge="1">
          <mxGeometry relative="1" as="geometry">
            <Array as="points">
              <mxPoint x="1677" y="2014" />
            </Array>
          </mxGeometry>
        </mxCell>
        <mxCell id="yNUHk9VUofDZDF6CJBJu-0" value="Constituent" style="swimlane;fontStyle=1;align=center;verticalAlign=top;childLayout=stackLayout;horizontal=1;startSize=38;horizontalStack=0;resizeParent=1;resizeLast=0;collapsible=1;marginBottom=0;rounded=0;shadow=0;strokeWidth=2;fontSize=25;" parent="WIyWlLk6GJQsqaUBKTNV-1" vertex="1">
          <mxGeometry x="1286" y="126" width="406.5" height="258" as="geometry">
            <mxRectangle x="130" y="380" width="160" height="26" as="alternateBounds" />
          </mxGeometry>
        </mxCell>
        <mxCell id="mNPfbvNHgH-7dLo6_KG_-22" value="constituency: String" style="text;align=left;verticalAlign=top;spacingLeft=4;spacingRight=4;overflow=hidden;rotatable=0;points=[[0,0.5],[1,0.5]];portConstraint=eastwest;fontSize=25;strokeWidth=2;" parent="yNUHk9VUofDZDF6CJBJu-0" vertex="1">
          <mxGeometry y="38" width="406.5" height="32" as="geometry" />
        </mxCell>
        <mxCell id="yNUHk9VUofDZDF6CJBJu-1" value="complaintHistory: List &lt;Complaint&gt;" style="text;align=left;verticalAlign=top;spacingLeft=4;spacingRight=4;overflow=hidden;rotatable=0;points=[[0,0.5],[1,0.5]];portConstraint=eastwest;fontSize=25;strokeWidth=2;" parent="yNUHk9VUofDZDF6CJBJu-0" vertex="1">
          <mxGeometry y="70" width="406.5" height="36" as="geometry" />
        </mxCell>
        <mxCell id="mNPfbvNHgH-7dLo6_KG_-35" style="text;align=left;verticalAlign=top;spacingLeft=4;spacingRight=4;overflow=hidden;rotatable=0;points=[[0,0.5],[1,0.5]];portConstraint=eastwest;fontSize=25;strokeWidth=2;" parent="yNUHk9VUofDZDF6CJBJu-0" vertex="1">
          <mxGeometry y="106" width="406.5" height="33" as="geometry" />
        </mxCell>
        <mxCell id="yNUHk9VUofDZDF6CJBJu-3" value="" style="line;html=1;strokeWidth=2;align=left;verticalAlign=middle;spacingTop=-1;spacingLeft=3;spacingRight=3;rotatable=0;labelPosition=right;points=[];portConstraint=eastwest;fontSize=25;" parent="yNUHk9VUofDZDF6CJBJu-0" vertex="1">
          <mxGeometry y="139" width="406.5" height="8" as="geometry" />
        </mxCell>
        <mxCell id="mNPfbvNHgH-7dLo6_KG_-41" value="ViewDetails(): void" style="text;align=left;verticalAlign=top;spacingLeft=4;spacingRight=4;overflow=hidden;rotatable=0;points=[[0,0.5],[1,0.5]];portConstraint=eastwest;fontSize=25;strokeWidth=2;" parent="yNUHk9VUofDZDF6CJBJu-0" vertex="1">
          <mxGeometry y="147" width="406.5" height="39" as="geometry" />
        </mxCell>
        <mxCell id="mNPfbvNHgH-7dLo6_KG_-45" style="text;align=left;verticalAlign=top;spacingLeft=4;spacingRight=4;overflow=hidden;rotatable=0;points=[[0,0.5],[1,0.5]];portConstraint=eastwest;fontSize=25;strokeWidth=2;" parent="yNUHk9VUofDZDF6CJBJu-0" vertex="1">
          <mxGeometry y="186" width="406.5" height="36" as="geometry" />
        </mxCell>
        <mxCell id="MwCf3yqxgivVvf109PhC-7" style="text;align=left;verticalAlign=top;spacingLeft=4;spacingRight=4;overflow=hidden;rotatable=0;points=[[0,0.5],[1,0.5]];portConstraint=eastwest;fontSize=25;strokeWidth=2;" vertex="1" parent="yNUHk9VUofDZDF6CJBJu-0">
          <mxGeometry y="222" width="406.5" height="36" as="geometry" />
        </mxCell>
        <mxCell id="yNUHk9VUofDZDF6CJBJu-6" value="Survey" style="swimlane;fontStyle=1;align=center;verticalAlign=top;childLayout=stackLayout;horizontal=1;startSize=39;horizontalStack=0;resizeParent=1;resizeLast=0;collapsible=1;marginBottom=0;rounded=0;shadow=0;strokeWidth=2;fontSize=25;" parent="WIyWlLk6GJQsqaUBKTNV-1" vertex="1">
          <mxGeometry x="-7" y="1524" width="339" height="431" as="geometry">
            <mxRectangle x="130" y="380" width="160" height="26" as="alternateBounds" />
          </mxGeometry>
        </mxCell>
        <mxCell id="yNUHk9VUofDZDF6CJBJu-7" value="surveyId: String" style="text;align=left;verticalAlign=top;spacingLeft=4;spacingRight=4;overflow=hidden;rotatable=0;points=[[0,0.5],[1,0.5]];portConstraint=eastwest;fontSize=25;strokeWidth=2;" parent="yNUHk9VUofDZDF6CJBJu-6" vertex="1">
          <mxGeometry y="39" width="339" height="40" as="geometry" />
        </mxCell>
        <mxCell id="yNUHk9VUofDZDF6CJBJu-8" value="title: String" style="text;align=left;verticalAlign=top;spacingLeft=4;spacingRight=4;overflow=hidden;rotatable=0;points=[[0,0.5],[1,0.5]];portConstraint=eastwest;rounded=0;shadow=0;html=0;fontSize=25;strokeWidth=2;" parent="yNUHk9VUofDZDF6CJBJu-6" vertex="1">
          <mxGeometry y="79" width="339" height="41" as="geometry" />
        </mxCell>
        <mxCell id="yNUHk9VUofDZDF6CJBJu-10" value="description: String" style="text;align=left;verticalAlign=top;spacingLeft=4;spacingRight=4;overflow=hidden;rotatable=0;points=[[0,0.5],[1,0.5]];portConstraint=eastwest;fontStyle=0;fontSize=25;strokeWidth=2;" parent="yNUHk9VUofDZDF6CJBJu-6" vertex="1">
          <mxGeometry y="120" width="339" height="40" as="geometry" />
        </mxCell>
        <mxCell id="yNUHk9VUofDZDF6CJBJu-11" value="responses: Array &lt;Objects&gt;" style="text;align=left;verticalAlign=top;spacingLeft=4;spacingRight=4;overflow=hidden;rotatable=0;points=[[0,0.5],[1,0.5]];portConstraint=eastwest;fontSize=25;strokeWidth=2;" parent="yNUHk9VUofDZDF6CJBJu-6" vertex="1">
          <mxGeometry y="160" width="339" height="37" as="geometry" />
        </mxCell>
        <mxCell id="G-upI68DP6zv-U2BLRxJ-23" style="text;align=left;verticalAlign=top;spacingLeft=4;spacingRight=4;overflow=hidden;rotatable=0;points=[[0,0.5],[1,0.5]];portConstraint=eastwest;fontSize=25;strokeWidth=2;" parent="yNUHk9VUofDZDF6CJBJu-6" vertex="1">
          <mxGeometry y="197" width="339" height="26" as="geometry" />
        </mxCell>
        <mxCell id="G-upI68DP6zv-U2BLRxJ-22" style="text;align=left;verticalAlign=top;spacingLeft=4;spacingRight=4;overflow=hidden;rotatable=0;points=[[0,0.5],[1,0.5]];portConstraint=eastwest;fontSize=25;strokeWidth=2;" parent="yNUHk9VUofDZDF6CJBJu-6" vertex="1">
          <mxGeometry y="223" width="339" height="35" as="geometry" />
        </mxCell>
        <mxCell id="yNUHk9VUofDZDF6CJBJu-9" value="" style="line;html=1;strokeWidth=2;align=left;verticalAlign=middle;spacingTop=-1;spacingLeft=3;spacingRight=3;rotatable=0;labelPosition=right;points=[];portConstraint=eastwest;fontSize=25;" parent="yNUHk9VUofDZDF6CJBJu-6" vertex="1">
          <mxGeometry y="258" width="339" height="8" as="geometry" />
        </mxCell>
        <mxCell id="Pei02myCYMl1iP3rMed8-10" value="CreateSurvey(): void" style="text;align=left;verticalAlign=top;spacingLeft=4;spacingRight=4;overflow=hidden;rotatable=0;points=[[0,0.5],[1,0.5]];portConstraint=eastwest;fontSize=25;strokeWidth=2;" parent="yNUHk9VUofDZDF6CJBJu-6" vertex="1">
          <mxGeometry y="266" width="339" height="40" as="geometry" />
        </mxCell>
        <mxCell id="Pei02myCYMl1iP3rMed8-9" value="CollectResponse(): void" style="text;align=left;verticalAlign=top;spacingLeft=4;spacingRight=4;overflow=hidden;rotatable=0;points=[[0,0.5],[1,0.5]];portConstraint=eastwest;fontSize=25;strokeWidth=2;" parent="yNUHk9VUofDZDF6CJBJu-6" vertex="1">
          <mxGeometry y="306" width="339" height="43" as="geometry" />
        </mxCell>
        <mxCell id="G-upI68DP6zv-U2BLRxJ-25" value="generateSurveyReport(): void" style="text;align=left;verticalAlign=top;spacingLeft=4;spacingRight=4;overflow=hidden;rotatable=0;points=[[0,0.5],[1,0.5]];portConstraint=eastwest;fontSize=25;strokeWidth=2;" parent="yNUHk9VUofDZDF6CJBJu-6" vertex="1">
          <mxGeometry y="349" width="339" height="40" as="geometry" />
        </mxCell>
        <mxCell id="G-upI68DP6zv-U2BLRxJ-24" value="DisplayReport(): void" style="text;align=left;verticalAlign=top;spacingLeft=4;spacingRight=4;overflow=hidden;rotatable=0;points=[[0,0.5],[1,0.5]];portConstraint=eastwest;fontSize=25;strokeWidth=2;" parent="yNUHk9VUofDZDF6CJBJu-6" vertex="1">
          <mxGeometry y="389" width="339" height="42" as="geometry" />
        </mxCell>
        <mxCell id="yNUHk9VUofDZDF6CJBJu-18" value="DepartmentComplaintHandler" style="swimlane;fontStyle=1;align=center;verticalAlign=top;childLayout=stackLayout;horizontal=1;startSize=34;horizontalStack=0;resizeParent=1;resizeLast=0;collapsible=1;marginBottom=0;rounded=0;shadow=0;strokeWidth=2;fontSize=25;" parent="WIyWlLk6GJQsqaUBKTNV-1" vertex="1">
          <mxGeometry x="444" y="125" width="383" height="196" as="geometry">
            <mxRectangle x="130" y="380" width="160" height="26" as="alternateBounds" />
          </mxGeometry>
        </mxCell>
        <mxCell id="yNUHk9VUofDZDF6CJBJu-19" value="department:Department" style="text;align=left;verticalAlign=top;spacingLeft=4;spacingRight=4;overflow=hidden;rotatable=0;points=[[0,0.5],[1,0.5]];portConstraint=eastwest;fontSize=25;strokeWidth=2;" parent="yNUHk9VUofDZDF6CJBJu-18" vertex="1">
          <mxGeometry y="34" width="383" height="34" as="geometry" />
        </mxCell>
        <mxCell id="mNPfbvNHgH-7dLo6_KG_-28" style="text;align=left;verticalAlign=top;spacingLeft=4;spacingRight=4;overflow=hidden;rotatable=0;points=[[0,0.5],[1,0.5]];portConstraint=eastwest;fontSize=25;strokeWidth=2;" parent="yNUHk9VUofDZDF6CJBJu-18" vertex="1">
          <mxGeometry y="68" width="383" height="26" as="geometry" />
        </mxCell>
        <mxCell id="mNPfbvNHgH-7dLo6_KG_-27" style="text;align=left;verticalAlign=top;spacingLeft=4;spacingRight=4;overflow=hidden;rotatable=0;points=[[0,0.5],[1,0.5]];portConstraint=eastwest;fontSize=25;strokeWidth=2;" parent="yNUHk9VUofDZDF6CJBJu-18" vertex="1">
          <mxGeometry y="94" width="383" height="26" as="geometry" />
        </mxCell>
        <mxCell id="yNUHk9VUofDZDF6CJBJu-21" value="" style="line;html=1;strokeWidth=2;align=left;verticalAlign=middle;spacingTop=-1;spacingLeft=3;spacingRight=3;rotatable=0;labelPosition=right;points=[];portConstraint=eastwest;fontSize=25;" parent="yNUHk9VUofDZDF6CJBJu-18" vertex="1">
          <mxGeometry y="120" width="383" height="8" as="geometry" />
        </mxCell>
        <mxCell id="mNPfbvNHgH-7dLo6_KG_-47" value="addComplaintHandler(): bool" style="text;align=left;verticalAlign=top;spacingLeft=4;spacingRight=4;overflow=hidden;rotatable=0;points=[[0,0.5],[1,0.5]];portConstraint=eastwest;fontSize=25;strokeWidth=2;" parent="yNUHk9VUofDZDF6CJBJu-18" vertex="1">
          <mxGeometry y="128" width="383" height="37" as="geometry" />
        </mxCell>
        <mxCell id="mNPfbvNHgH-7dLo6_KG_-49" style="text;align=left;verticalAlign=top;spacingLeft=4;spacingRight=4;overflow=hidden;rotatable=0;points=[[0,0.5],[1,0.5]];portConstraint=eastwest;fontSize=25;strokeWidth=2;" parent="yNUHk9VUofDZDF6CJBJu-18" vertex="1">
          <mxGeometry y="165" width="383" height="31" as="geometry" />
        </mxCell>
        <mxCell id="yNUHk9VUofDZDF6CJBJu-24" value="Notification" style="swimlane;fontStyle=1;align=center;verticalAlign=top;childLayout=stackLayout;horizontal=1;startSize=35;horizontalStack=0;resizeParent=1;resizeLast=0;collapsible=1;marginBottom=0;rounded=0;shadow=0;strokeWidth=2;fontSize=25;" parent="WIyWlLk6GJQsqaUBKTNV-1" vertex="1">
          <mxGeometry x="881" y="596" width="297" height="298" as="geometry">
            <mxRectangle x="130" y="380" width="160" height="26" as="alternateBounds" />
          </mxGeometry>
        </mxCell>
        <mxCell id="yNUHk9VUofDZDF6CJBJu-25" value="NotificationID:int" style="text;align=left;verticalAlign=top;spacingLeft=4;spacingRight=4;overflow=hidden;rotatable=0;points=[[0,0.5],[1,0.5]];portConstraint=eastwest;fontSize=25;strokeWidth=2;" parent="yNUHk9VUofDZDF6CJBJu-24" vertex="1">
          <mxGeometry y="35" width="297" height="38" as="geometry" />
        </mxCell>
        <mxCell id="yNUHk9VUofDZDF6CJBJu-26" value="Message:String" style="text;align=left;verticalAlign=top;spacingLeft=4;spacingRight=4;overflow=hidden;rotatable=0;points=[[0,0.5],[1,0.5]];portConstraint=eastwest;rounded=0;shadow=0;html=0;fontSize=25;strokeWidth=2;" parent="yNUHk9VUofDZDF6CJBJu-24" vertex="1">
          <mxGeometry y="73" width="297" height="45" as="geometry" />
        </mxCell>
        <mxCell id="yNUHk9VUofDZDF6CJBJu-28" value="Recipient:user" style="text;align=left;verticalAlign=top;spacingLeft=4;spacingRight=4;overflow=hidden;rotatable=0;points=[[0,0.5],[1,0.5]];portConstraint=eastwest;fontStyle=0;fontSize=25;strokeWidth=2;" parent="yNUHk9VUofDZDF6CJBJu-24" vertex="1">
          <mxGeometry y="118" width="297" height="43" as="geometry" />
        </mxCell>
        <mxCell id="yNUHk9VUofDZDF6CJBJu-27" value="" style="line;html=1;strokeWidth=2;align=left;verticalAlign=middle;spacingTop=-1;spacingLeft=3;spacingRight=3;rotatable=0;labelPosition=right;points=[];portConstraint=eastwest;fontSize=25;" parent="yNUHk9VUofDZDF6CJBJu-24" vertex="1">
          <mxGeometry y="161" width="297" height="8" as="geometry" />
        </mxCell>
        <mxCell id="yNUHk9VUofDZDF6CJBJu-29" value="SendNotification(): void" style="text;align=left;verticalAlign=top;spacingLeft=4;spacingRight=4;overflow=hidden;rotatable=0;points=[[0,0.5],[1,0.5]];portConstraint=eastwest;fontSize=25;strokeWidth=2;" parent="yNUHk9VUofDZDF6CJBJu-24" vertex="1">
          <mxGeometry y="169" width="297" height="43" as="geometry" />
        </mxCell>
        <mxCell id="mya1ldU0AWZnJ4HsEFB_-0" value="FetchNotification(): void" style="text;align=left;verticalAlign=top;spacingLeft=4;spacingRight=4;overflow=hidden;rotatable=0;points=[[0,0.5],[1,0.5]];portConstraint=eastwest;fontSize=25;strokeWidth=2;" parent="yNUHk9VUofDZDF6CJBJu-24" vertex="1">
          <mxGeometry y="212" width="297" height="43" as="geometry" />
        </mxCell>
        <mxCell id="MwCf3yqxgivVvf109PhC-6" value="DisplayNotification(): void" style="text;align=left;verticalAlign=top;spacingLeft=4;spacingRight=4;overflow=hidden;rotatable=0;points=[[0,0.5],[1,0.5]];portConstraint=eastwest;fontSize=25;strokeWidth=2;" vertex="1" parent="yNUHk9VUofDZDF6CJBJu-24">
          <mxGeometry y="255" width="297" height="43" as="geometry" />
        </mxCell>
        <mxCell id="pbMIqYxpZXbtXTmgva8M-27" style="edgeStyle=orthogonalEdgeStyle;rounded=1;orthogonalLoop=1;jettySize=auto;html=1;entryX=0.5;entryY=1;entryDx=0;entryDy=0;strokeWidth=2;curved=0;fontSize=25;" parent="WIyWlLk6GJQsqaUBKTNV-1" source="Pei02myCYMl1iP3rMed8-11" target="zkfFHV4jXpPFQw0GAbJ--17" edge="1">
          <mxGeometry relative="1" as="geometry" />
        </mxCell>
        <mxCell id="Pei02myCYMl1iP3rMed8-11" value="Feedback" style="swimlane;fontStyle=1;align=center;verticalAlign=top;childLayout=stackLayout;horizontal=1;startSize=33;horizontalStack=0;resizeParent=1;resizeLast=0;collapsible=1;marginBottom=0;rounded=0;shadow=0;strokeWidth=2;fontSize=25;" parent="WIyWlLk6GJQsqaUBKTNV-1" vertex="1">
          <mxGeometry x="507" y="853" width="364" height="310" as="geometry">
            <mxRectangle x="130" y="380" width="160" height="26" as="alternateBounds" />
          </mxGeometry>
        </mxCell>
        <mxCell id="Pei02myCYMl1iP3rMed8-12" value="feedbackId:String" style="text;align=left;verticalAlign=top;spacingLeft=4;spacingRight=4;overflow=hidden;rotatable=0;points=[[0,0.5],[1,0.5]];portConstraint=eastwest;fontSize=25;strokeWidth=2;" parent="Pei02myCYMl1iP3rMed8-11" vertex="1">
          <mxGeometry y="33" width="364" height="39" as="geometry" />
        </mxCell>
        <mxCell id="Pei02myCYMl1iP3rMed8-13" value="content:String" style="text;align=left;verticalAlign=top;spacingLeft=4;spacingRight=4;overflow=hidden;rotatable=0;points=[[0,0.5],[1,0.5]];portConstraint=eastwest;rounded=0;shadow=0;html=0;fontSize=25;strokeWidth=2;" parent="Pei02myCYMl1iP3rMed8-11" vertex="1">
          <mxGeometry y="72" width="364" height="39" as="geometry" />
        </mxCell>
        <mxCell id="Pei02myCYMl1iP3rMed8-14" value="rating:int" style="text;align=left;verticalAlign=top;spacingLeft=4;spacingRight=4;overflow=hidden;rotatable=0;points=[[0,0.5],[1,0.5]];portConstraint=eastwest;fontStyle=0;fontSize=25;strokeWidth=2;" parent="Pei02myCYMl1iP3rMed8-11" vertex="1">
          <mxGeometry y="111" width="364" height="40" as="geometry" />
        </mxCell>
        <mxCell id="Pei02myCYMl1iP3rMed8-15" value="associatedComplaint:Complaint" style="text;align=left;verticalAlign=top;spacingLeft=4;spacingRight=4;overflow=hidden;rotatable=0;points=[[0,0.5],[1,0.5]];portConstraint=eastwest;fontSize=25;strokeWidth=2;" parent="Pei02myCYMl1iP3rMed8-11" vertex="1">
          <mxGeometry y="151" width="364" height="43" as="geometry" />
        </mxCell>
        <mxCell id="Pei02myCYMl1iP3rMed8-16" value="" style="line;html=1;strokeWidth=2;align=left;verticalAlign=middle;spacingTop=-1;spacingLeft=3;spacingRight=3;rotatable=0;labelPosition=right;points=[];portConstraint=eastwest;fontSize=25;" parent="Pei02myCYMl1iP3rMed8-11" vertex="1">
          <mxGeometry y="194" width="364" height="8" as="geometry" />
        </mxCell>
        <mxCell id="Pei02myCYMl1iP3rMed8-17" value="SubmitFeedback(): void" style="text;align=left;verticalAlign=top;spacingLeft=4;spacingRight=4;overflow=hidden;rotatable=0;points=[[0,0.5],[1,0.5]];portConstraint=eastwest;fontSize=25;strokeWidth=2;" parent="Pei02myCYMl1iP3rMed8-11" vertex="1">
          <mxGeometry y="202" width="364" height="44" as="geometry" />
        </mxCell>
        <mxCell id="mNPfbvNHgH-7dLo6_KG_-53" style="text;align=left;verticalAlign=top;spacingLeft=4;spacingRight=4;overflow=hidden;rotatable=0;points=[[0,0.5],[1,0.5]];portConstraint=eastwest;fontSize=25;strokeWidth=2;" parent="Pei02myCYMl1iP3rMed8-11" vertex="1">
          <mxGeometry y="246" width="364" height="26" as="geometry" />
        </mxCell>
        <mxCell id="mNPfbvNHgH-7dLo6_KG_-52" style="text;align=left;verticalAlign=top;spacingLeft=4;spacingRight=4;overflow=hidden;rotatable=0;points=[[0,0.5],[1,0.5]];portConstraint=eastwest;fontSize=25;strokeWidth=2;" parent="Pei02myCYMl1iP3rMed8-11" vertex="1">
          <mxGeometry y="272" width="364" height="38" as="geometry" />
        </mxCell>
        <mxCell id="Pei02myCYMl1iP3rMed8-59" value="VirtualMeetup" style="swimlane;fontStyle=1;align=center;verticalAlign=top;childLayout=stackLayout;horizontal=1;startSize=37;horizontalStack=0;resizeParent=1;resizeLast=0;collapsible=1;marginBottom=0;rounded=0;shadow=0;strokeWidth=2;fontSize=25;" parent="WIyWlLk6GJQsqaUBKTNV-1" vertex="1">
          <mxGeometry x="1076" y="1238" width="376" height="506" as="geometry">
            <mxRectangle x="550" y="140" width="160" height="26" as="alternateBounds" />
          </mxGeometry>
        </mxCell>
        <mxCell id="Pei02myCYMl1iP3rMed8-60" value="meetupId: String" style="text;align=left;verticalAlign=top;spacingLeft=4;spacingRight=4;overflow=hidden;rotatable=0;points=[[0,0.5],[1,0.5]];portConstraint=eastwest;fontSize=25;strokeWidth=2;" parent="Pei02myCYMl1iP3rMed8-59" vertex="1">
          <mxGeometry y="37" width="376" height="38" as="geometry" />
        </mxCell>
        <mxCell id="Pei02myCYMl1iP3rMed8-61" value="title: String" style="text;align=left;verticalAlign=top;spacingLeft=4;spacingRight=4;overflow=hidden;rotatable=0;points=[[0,0.5],[1,0.5]];portConstraint=eastwest;rounded=0;shadow=0;html=0;fontSize=25;strokeWidth=2;" parent="Pei02myCYMl1iP3rMed8-59" vertex="1">
          <mxGeometry y="75" width="376" height="36" as="geometry" />
        </mxCell>
        <mxCell id="Pei02myCYMl1iP3rMed8-62" value="datetime: Date" style="text;align=left;verticalAlign=top;spacingLeft=4;spacingRight=4;overflow=hidden;rotatable=0;points=[[0,0.5],[1,0.5]];portConstraint=eastwest;rounded=0;shadow=0;html=0;fontSize=25;strokeWidth=2;" parent="Pei02myCYMl1iP3rMed8-59" vertex="1">
          <mxGeometry y="111" width="376" height="37" as="geometry" />
        </mxCell>
        <mxCell id="Pei02myCYMl1iP3rMed8-63" value="participants: List&lt;Constituents&gt;" style="text;align=left;verticalAlign=top;spacingLeft=4;spacingRight=4;overflow=hidden;rotatable=0;points=[[0,0.5],[1,0.5]];portConstraint=eastwest;rounded=0;shadow=0;html=0;fontSize=25;strokeWidth=2;" parent="Pei02myCYMl1iP3rMed8-59" vertex="1">
          <mxGeometry y="148" width="376" height="39" as="geometry" />
        </mxCell>
        <mxCell id="Pei02myCYMl1iP3rMed8-64" value="link: String" style="text;align=left;verticalAlign=top;spacingLeft=4;spacingRight=4;overflow=hidden;rotatable=0;points=[[0,0.5],[1,0.5]];portConstraint=eastwest;rounded=0;shadow=0;html=0;fontSize=25;strokeWidth=2;" parent="Pei02myCYMl1iP3rMed8-59" vertex="1">
          <mxGeometry y="187" width="376" height="38" as="geometry" />
        </mxCell>
        <mxCell id="Pei02myCYMl1iP3rMed8-66" value="" style="line;html=1;strokeWidth=2;align=left;verticalAlign=middle;spacingTop=-1;spacingLeft=3;spacingRight=3;rotatable=0;labelPosition=right;points=[];portConstraint=eastwest;fontSize=25;" parent="Pei02myCYMl1iP3rMed8-59" vertex="1">
          <mxGeometry y="225" width="376" height="8" as="geometry" />
        </mxCell>
        <mxCell id="Pei02myCYMl1iP3rMed8-67" value="SchdeuleMeetup(): void" style="text;align=left;verticalAlign=top;spacingLeft=4;spacingRight=4;overflow=hidden;rotatable=0;points=[[0,0.5],[1,0.5]];portConstraint=eastwest;fontSize=25;strokeWidth=2;" parent="Pei02myCYMl1iP3rMed8-59" vertex="1">
          <mxGeometry y="233" width="376" height="36" as="geometry" />
        </mxCell>
        <mxCell id="Pei02myCYMl1iP3rMed8-68" value="UpdateMeetupdetails(): void" style="text;align=left;verticalAlign=top;spacingLeft=4;spacingRight=4;overflow=hidden;rotatable=0;points=[[0,0.5],[1,0.5]];portConstraint=eastwest;fontSize=25;strokeWidth=2;" parent="Pei02myCYMl1iP3rMed8-59" vertex="1">
          <mxGeometry y="269" width="376" height="40" as="geometry" />
        </mxCell>
        <mxCell id="Pei02myCYMl1iP3rMed8-69" value="CancelMeetup(): void" style="text;align=left;verticalAlign=top;spacingLeft=4;spacingRight=4;overflow=hidden;rotatable=0;points=[[0,0.5],[1,0.5]];portConstraint=eastwest;fontSize=25;strokeWidth=2;" parent="Pei02myCYMl1iP3rMed8-59" vertex="1">
          <mxGeometry y="309" width="376" height="40" as="geometry" />
        </mxCell>
        <mxCell id="Pei02myCYMl1iP3rMed8-72" value="Notifyparticipants(): void" style="text;align=left;verticalAlign=top;spacingLeft=4;spacingRight=4;overflow=hidden;rotatable=0;points=[[0,0.5],[1,0.5]];portConstraint=eastwest;fontSize=25;strokeWidth=2;" parent="Pei02myCYMl1iP3rMed8-59" vertex="1">
          <mxGeometry y="349" width="376" height="45" as="geometry" />
        </mxCell>
        <mxCell id="mya1ldU0AWZnJ4HsEFB_-10" value="JoinMeetup(): void" style="text;align=left;verticalAlign=top;spacingLeft=4;spacingRight=4;overflow=hidden;rotatable=0;points=[[0,0.5],[1,0.5]];portConstraint=eastwest;fontSize=25;strokeWidth=2;" parent="Pei02myCYMl1iP3rMed8-59" vertex="1">
          <mxGeometry y="394" width="376" height="42" as="geometry" />
        </mxCell>
        <mxCell id="MwCf3yqxgivVvf109PhC-3" value="redirectToMeetup(): void" style="text;align=left;verticalAlign=top;spacingLeft=4;spacingRight=4;overflow=hidden;rotatable=0;points=[[0,0.5],[1,0.5]];portConstraint=eastwest;fontSize=25;strokeWidth=2;" vertex="1" parent="Pei02myCYMl1iP3rMed8-59">
          <mxGeometry y="436" width="376" height="35" as="geometry" />
        </mxCell>
        <mxCell id="MwCf3yqxgivVvf109PhC-4" style="text;align=left;verticalAlign=top;spacingLeft=4;spacingRight=4;overflow=hidden;rotatable=0;points=[[0,0.5],[1,0.5]];portConstraint=eastwest;fontSize=25;strokeWidth=2;" vertex="1" parent="Pei02myCYMl1iP3rMed8-59">
          <mxGeometry y="471" width="376" height="35" as="geometry" />
        </mxCell>
        <mxCell id="mNPfbvNHgH-7dLo6_KG_-9" value="" style="endArrow=block;endSize=10;endFill=0;shadow=0;strokeWidth=2;rounded=1;curved=0;edgeStyle=elbowEdgeStyle;elbow=vertical;fontSize=25;entryX=0.5;entryY=1;entryDx=0;entryDy=0;exitX=0.379;exitY=0.006;exitDx=0;exitDy=0;exitPerimeter=0;" parent="WIyWlLk6GJQsqaUBKTNV-1" source="yNUHk9VUofDZDF6CJBJu-18" target="zkfFHV4jXpPFQw0GAbJ--0" edge="1">
          <mxGeometry width="160" relative="1" as="geometry">
            <mxPoint x="1026" y="139" as="sourcePoint" />
            <mxPoint x="531" y="46" as="targetPoint" />
            <Array as="points">
              <mxPoint x="597" y="91" />
            </Array>
          </mxGeometry>
        </mxCell>
        <mxCell id="mNPfbvNHgH-7dLo6_KG_-8" value="" style="ellipse;whiteSpace=wrap;html=1;aspect=fixed;fillColor=#000000;strokeWidth=2;fontSize=25;" parent="WIyWlLk6GJQsqaUBKTNV-1" vertex="1">
          <mxGeometry x="585" y="69" width="8" height="8" as="geometry" />
        </mxCell>
        <mxCell id="mNPfbvNHgH-7dLo6_KG_-43" value="" style="endArrow=classic;html=1;rounded=1;exitX=0.86;exitY=1.011;exitDx=0;exitDy=0;exitPerimeter=0;strokeWidth=2;curved=0;fontSize=25;entryX=0;entryY=0.5;entryDx=0;entryDy=0;" parent="WIyWlLk6GJQsqaUBKTNV-1" source="mNPfbvNHgH-7dLo6_KG_-25" target="zkfFHV4jXpPFQw0GAbJ--18" edge="1">
          <mxGeometry width="50" height="50" relative="1" as="geometry">
            <mxPoint x="239" y="496" as="sourcePoint" />
            <mxPoint x="511" y="628" as="targetPoint" />
            <Array as="points">
              <mxPoint x="-166" y="471" />
            </Array>
          </mxGeometry>
        </mxCell>
        <mxCell id="mNPfbvNHgH-7dLo6_KG_-56" value="EventCalendar" style="swimlane;fontStyle=1;align=center;verticalAlign=top;childLayout=stackLayout;horizontal=1;startSize=36;horizontalStack=0;resizeParent=1;resizeLast=0;collapsible=1;marginBottom=0;rounded=0;shadow=0;strokeWidth=2;fontSize=25;" parent="WIyWlLk6GJQsqaUBKTNV-1" vertex="1">
          <mxGeometry x="124" y="1076" width="340" height="348" as="geometry">
            <mxRectangle x="550" y="140" width="160" height="26" as="alternateBounds" />
          </mxGeometry>
        </mxCell>
        <mxCell id="mNPfbvNHgH-7dLo6_KG_-57" value="eventCalendarId: String" style="text;align=left;verticalAlign=top;spacingLeft=4;spacingRight=4;overflow=hidden;rotatable=0;points=[[0,0.5],[1,0.5]];portConstraint=eastwest;fontSize=25;strokeWidth=2;" parent="mNPfbvNHgH-7dLo6_KG_-56" vertex="1">
          <mxGeometry y="36" width="340" height="35" as="geometry" />
        </mxCell>
        <mxCell id="mNPfbvNHgH-7dLo6_KG_-59" value="eventList: List&lt;Event&gt;" style="text;align=left;verticalAlign=top;spacingLeft=4;spacingRight=4;overflow=hidden;rotatable=0;points=[[0,0.5],[1,0.5]];portConstraint=eastwest;rounded=0;shadow=0;html=0;fontSize=25;strokeWidth=2;" parent="mNPfbvNHgH-7dLo6_KG_-56" vertex="1">
          <mxGeometry y="71" width="340" height="36" as="geometry" />
        </mxCell>
        <mxCell id="mNPfbvNHgH-7dLo6_KG_-84" style="text;align=left;verticalAlign=top;spacingLeft=4;spacingRight=4;overflow=hidden;rotatable=0;points=[[0,0.5],[1,0.5]];portConstraint=eastwest;rounded=0;shadow=0;html=0;fontSize=25;strokeWidth=2;" parent="mNPfbvNHgH-7dLo6_KG_-56" vertex="1">
          <mxGeometry y="107" width="340" height="26" as="geometry" />
        </mxCell>
        <mxCell id="mNPfbvNHgH-7dLo6_KG_-83" style="text;align=left;verticalAlign=top;spacingLeft=4;spacingRight=4;overflow=hidden;rotatable=0;points=[[0,0.5],[1,0.5]];portConstraint=eastwest;rounded=0;shadow=0;html=0;fontSize=25;strokeWidth=2;" parent="mNPfbvNHgH-7dLo6_KG_-56" vertex="1">
          <mxGeometry y="133" width="340" height="26" as="geometry" />
        </mxCell>
        <mxCell id="mNPfbvNHgH-7dLo6_KG_-63" value="" style="line;html=1;strokeWidth=2;align=left;verticalAlign=middle;spacingTop=-1;spacingLeft=3;spacingRight=3;rotatable=0;labelPosition=right;points=[];portConstraint=eastwest;fontSize=25;" parent="mNPfbvNHgH-7dLo6_KG_-56" vertex="1">
          <mxGeometry y="159" width="340" height="8" as="geometry" />
        </mxCell>
        <mxCell id="mNPfbvNHgH-7dLo6_KG_-64" value="AddEvent(): void" style="text;align=left;verticalAlign=top;spacingLeft=4;spacingRight=4;overflow=hidden;rotatable=0;points=[[0,0.5],[1,0.5]];portConstraint=eastwest;fontSize=25;strokeWidth=2;" parent="mNPfbvNHgH-7dLo6_KG_-56" vertex="1">
          <mxGeometry y="167" width="340" height="32" as="geometry" />
        </mxCell>
        <mxCell id="mNPfbvNHgH-7dLo6_KG_-65" value="UpdateEventCalendar(): void" style="text;align=left;verticalAlign=top;spacingLeft=4;spacingRight=4;overflow=hidden;rotatable=0;points=[[0,0.5],[1,0.5]];portConstraint=eastwest;fontSize=25;strokeWidth=2;" parent="mNPfbvNHgH-7dLo6_KG_-56" vertex="1">
          <mxGeometry y="199" width="340" height="41" as="geometry" />
        </mxCell>
        <mxCell id="mNPfbvNHgH-7dLo6_KG_-66" value="DeleteEventCalendar(): void" style="text;align=left;verticalAlign=top;spacingLeft=4;spacingRight=4;overflow=hidden;rotatable=0;points=[[0,0.5],[1,0.5]];portConstraint=eastwest;fontSize=25;strokeWidth=2;" parent="mNPfbvNHgH-7dLo6_KG_-56" vertex="1">
          <mxGeometry y="240" width="340" height="39" as="geometry" />
        </mxCell>
        <mxCell id="mNPfbvNHgH-7dLo6_KG_-86" value="DisplayEventCalendar():void" style="text;align=left;verticalAlign=top;spacingLeft=4;spacingRight=4;overflow=hidden;rotatable=0;points=[[0,0.5],[1,0.5]];portConstraint=eastwest;fontSize=25;strokeWidth=2;" parent="mNPfbvNHgH-7dLo6_KG_-56" vertex="1">
          <mxGeometry y="279" width="340" height="37" as="geometry" />
        </mxCell>
        <mxCell id="mNPfbvNHgH-7dLo6_KG_-85" style="text;align=left;verticalAlign=top;spacingLeft=4;spacingRight=4;overflow=hidden;rotatable=0;points=[[0,0.5],[1,0.5]];portConstraint=eastwest;fontSize=25;strokeWidth=2;" parent="mNPfbvNHgH-7dLo6_KG_-56" vertex="1">
          <mxGeometry y="316" width="340" height="32" as="geometry" />
        </mxCell>
        <mxCell id="mNPfbvNHgH-7dLo6_KG_-68" value="Event" style="swimlane;fontStyle=1;align=center;verticalAlign=top;childLayout=stackLayout;horizontal=1;startSize=36;horizontalStack=0;resizeParent=1;resizeLast=0;collapsible=1;marginBottom=0;rounded=0;shadow=0;strokeWidth=2;fontSize=25;" parent="WIyWlLk6GJQsqaUBKTNV-1" vertex="1">
          <mxGeometry x="-169" y="678" width="276" height="399" as="geometry">
            <mxRectangle x="550" y="140" width="160" height="26" as="alternateBounds" />
          </mxGeometry>
        </mxCell>
        <mxCell id="mNPfbvNHgH-7dLo6_KG_-69" value="eventId: String" style="text;align=left;verticalAlign=top;spacingLeft=4;spacingRight=4;overflow=hidden;rotatable=0;points=[[0,0.5],[1,0.5]];portConstraint=eastwest;fontSize=25;strokeWidth=2;" parent="mNPfbvNHgH-7dLo6_KG_-68" vertex="1">
          <mxGeometry y="36" width="276" height="37" as="geometry" />
        </mxCell>
        <mxCell id="mNPfbvNHgH-7dLo6_KG_-70" value="title:String" style="text;align=left;verticalAlign=top;spacingLeft=4;spacingRight=4;overflow=hidden;rotatable=0;points=[[0,0.5],[1,0.5]];portConstraint=eastwest;rounded=0;shadow=0;html=0;fontSize=25;strokeWidth=2;" parent="mNPfbvNHgH-7dLo6_KG_-68" vertex="1">
          <mxGeometry y="73" width="276" height="37" as="geometry" />
        </mxCell>
        <mxCell id="mNPfbvNHgH-7dLo6_KG_-81" value="description:String" style="text;align=left;verticalAlign=top;spacingLeft=4;spacingRight=4;overflow=hidden;rotatable=0;points=[[0,0.5],[1,0.5]];portConstraint=eastwest;rounded=0;shadow=0;html=0;fontSize=25;strokeWidth=2;" parent="mNPfbvNHgH-7dLo6_KG_-68" vertex="1">
          <mxGeometry y="110" width="276" height="38" as="geometry" />
        </mxCell>
        <mxCell id="mNPfbvNHgH-7dLo6_KG_-71" value="date:Date" style="text;align=left;verticalAlign=top;spacingLeft=4;spacingRight=4;overflow=hidden;rotatable=0;points=[[0,0.5],[1,0.5]];portConstraint=eastwest;rounded=0;shadow=0;html=0;fontSize=25;strokeWidth=2;" parent="mNPfbvNHgH-7dLo6_KG_-68" vertex="1">
          <mxGeometry y="148" width="276" height="26" as="geometry" />
        </mxCell>
        <mxCell id="mNPfbvNHgH-7dLo6_KG_-74" value="type: String" style="text;align=left;verticalAlign=top;spacingLeft=4;spacingRight=4;overflow=hidden;rotatable=0;points=[[0,0.5],[1,0.5]];portConstraint=eastwest;fontSize=25;strokeWidth=2;" parent="mNPfbvNHgH-7dLo6_KG_-68" vertex="1">
          <mxGeometry y="174" width="276" height="39" as="geometry" />
        </mxCell>
        <mxCell id="mNPfbvNHgH-7dLo6_KG_-82" style="text;align=left;verticalAlign=top;spacingLeft=4;spacingRight=4;overflow=hidden;rotatable=0;points=[[0,0.5],[1,0.5]];portConstraint=eastwest;fontSize=25;strokeWidth=2;" parent="mNPfbvNHgH-7dLo6_KG_-68" vertex="1">
          <mxGeometry y="213" width="276" height="34" as="geometry" />
        </mxCell>
        <mxCell id="mNPfbvNHgH-7dLo6_KG_-75" value="" style="line;html=1;strokeWidth=2;align=left;verticalAlign=middle;spacingTop=-1;spacingLeft=3;spacingRight=3;rotatable=0;labelPosition=right;points=[];portConstraint=eastwest;fontSize=25;" parent="mNPfbvNHgH-7dLo6_KG_-68" vertex="1">
          <mxGeometry y="247" width="276" height="8" as="geometry" />
        </mxCell>
        <mxCell id="mNPfbvNHgH-7dLo6_KG_-76" value="CreateEvent(): void" style="text;align=left;verticalAlign=top;spacingLeft=4;spacingRight=4;overflow=hidden;rotatable=0;points=[[0,0.5],[1,0.5]];portConstraint=eastwest;fontSize=25;strokeWidth=2;" parent="mNPfbvNHgH-7dLo6_KG_-68" vertex="1">
          <mxGeometry y="255" width="276" height="37" as="geometry" />
        </mxCell>
        <mxCell id="mNPfbvNHgH-7dLo6_KG_-77" value="UpdateEvent(): void" style="text;align=left;verticalAlign=top;spacingLeft=4;spacingRight=4;overflow=hidden;rotatable=0;points=[[0,0.5],[1,0.5]];portConstraint=eastwest;fontSize=25;strokeWidth=2;" parent="mNPfbvNHgH-7dLo6_KG_-68" vertex="1">
          <mxGeometry y="292" width="276" height="41" as="geometry" />
        </mxCell>
        <mxCell id="mNPfbvNHgH-7dLo6_KG_-78" value="DeleteEvent(): void" style="text;align=left;verticalAlign=top;spacingLeft=4;spacingRight=4;overflow=hidden;rotatable=0;points=[[0,0.5],[1,0.5]];portConstraint=eastwest;fontSize=25;strokeWidth=2;" parent="mNPfbvNHgH-7dLo6_KG_-68" vertex="1">
          <mxGeometry y="333" width="276" height="34" as="geometry" />
        </mxCell>
        <mxCell id="mNPfbvNHgH-7dLo6_KG_-79" style="text;align=left;verticalAlign=top;spacingLeft=4;spacingRight=4;overflow=hidden;rotatable=0;points=[[0,0.5],[1,0.5]];portConstraint=eastwest;fontSize=25;strokeWidth=2;" parent="mNPfbvNHgH-7dLo6_KG_-68" vertex="1">
          <mxGeometry y="367" width="276" height="32" as="geometry" />
        </mxCell>
        <mxCell id="mNPfbvNHgH-7dLo6_KG_-42" style="text;html=1;align=left;verticalAlign=middle;whiteSpace=wrap;rounded=0;fontSize=25;strokeWidth=2;" parent="WIyWlLk6GJQsqaUBKTNV-1" vertex="1">
          <mxGeometry x="611" y="-25" width="296" height="37" as="geometry" />
        </mxCell>
        <mxCell id="mNPfbvNHgH-7dLo6_KG_-100" value="Department" style="swimlane;fontStyle=1;align=center;verticalAlign=top;childLayout=stackLayout;horizontal=1;startSize=34;horizontalStack=0;resizeParent=1;resizeLast=0;collapsible=1;marginBottom=0;rounded=0;shadow=0;strokeWidth=2;fontSize=25;" parent="WIyWlLk6GJQsqaUBKTNV-1" vertex="1">
          <mxGeometry x="-40" y="132.5" width="311" height="238" as="geometry">
            <mxRectangle x="130" y="380" width="160" height="26" as="alternateBounds" />
          </mxGeometry>
        </mxCell>
        <mxCell id="mNPfbvNHgH-7dLo6_KG_-101" value="departmentId:Department" style="text;align=left;verticalAlign=top;spacingLeft=4;spacingRight=4;overflow=hidden;rotatable=0;points=[[0,0.5],[1,0.5]];portConstraint=eastwest;fontSize=25;strokeWidth=2;" parent="mNPfbvNHgH-7dLo6_KG_-100" vertex="1">
          <mxGeometry y="34" width="311" height="39" as="geometry" />
        </mxCell>
        <mxCell id="mNPfbvNHgH-7dLo6_KG_-102" value="name: String" style="text;align=left;verticalAlign=top;spacingLeft=4;spacingRight=4;overflow=hidden;rotatable=0;points=[[0,0.5],[1,0.5]];portConstraint=eastwest;fontSize=25;strokeWidth=2;" parent="mNPfbvNHgH-7dLo6_KG_-100" vertex="1">
          <mxGeometry y="73" width="311" height="36" as="geometry" />
        </mxCell>
        <mxCell id="mNPfbvNHgH-7dLo6_KG_-109" value="description: String" style="text;align=left;verticalAlign=top;spacingLeft=4;spacingRight=4;overflow=hidden;rotatable=0;points=[[0,0.5],[1,0.5]];portConstraint=eastwest;fontSize=25;strokeWidth=2;" parent="mNPfbvNHgH-7dLo6_KG_-100" vertex="1">
          <mxGeometry y="109" width="311" height="33" as="geometry" />
        </mxCell>
        <mxCell id="mNPfbvNHgH-7dLo6_KG_-103" style="text;align=left;verticalAlign=top;spacingLeft=4;spacingRight=4;overflow=hidden;rotatable=0;points=[[0,0.5],[1,0.5]];portConstraint=eastwest;fontSize=25;strokeWidth=2;" parent="mNPfbvNHgH-7dLo6_KG_-100" vertex="1">
          <mxGeometry y="142" width="311" height="26" as="geometry" />
        </mxCell>
        <mxCell id="mNPfbvNHgH-7dLo6_KG_-104" value="" style="line;html=1;strokeWidth=2;align=left;verticalAlign=middle;spacingTop=-1;spacingLeft=3;spacingRight=3;rotatable=0;labelPosition=right;points=[];portConstraint=eastwest;fontSize=25;" parent="mNPfbvNHgH-7dLo6_KG_-100" vertex="1">
          <mxGeometry y="168" width="311" height="8" as="geometry" />
        </mxCell>
        <mxCell id="mNPfbvNHgH-7dLo6_KG_-105" value="DisplayDetails(): void" style="text;align=left;verticalAlign=top;spacingLeft=4;spacingRight=4;overflow=hidden;rotatable=0;points=[[0,0.5],[1,0.5]];portConstraint=eastwest;fontSize=25;strokeWidth=2;" parent="mNPfbvNHgH-7dLo6_KG_-100" vertex="1">
          <mxGeometry y="176" width="311" height="31" as="geometry" />
        </mxCell>
        <mxCell id="mNPfbvNHgH-7dLo6_KG_-106" style="text;align=left;verticalAlign=top;spacingLeft=4;spacingRight=4;overflow=hidden;rotatable=0;points=[[0,0.5],[1,0.5]];portConstraint=eastwest;fontSize=25;strokeWidth=2;" parent="mNPfbvNHgH-7dLo6_KG_-100" vertex="1">
          <mxGeometry y="207" width="311" height="31" as="geometry" />
        </mxCell>
        <mxCell id="mNPfbvNHgH-7dLo6_KG_-108" style="edgeStyle=orthogonalEdgeStyle;rounded=1;orthogonalLoop=1;jettySize=auto;html=1;curved=0;strokeWidth=2;fontSize=25;entryX=0.999;entryY=-0.039;entryDx=0;entryDy=0;entryPerimeter=0;" parent="WIyWlLk6GJQsqaUBKTNV-1" target="zkfFHV4jXpPFQw0GAbJ--22" edge="1">
          <mxGeometry relative="1" as="geometry">
            <Array as="points">
              <mxPoint x="1315" y="589" />
              <mxPoint x="554" y="590" />
            </Array>
            <mxPoint x="590" y="587" as="targetPoint" />
            <mxPoint x="1315" y="384" as="sourcePoint" />
          </mxGeometry>
        </mxCell>
        <mxCell id="mNPfbvNHgH-7dLo6_KG_-110" style="edgeStyle=orthogonalEdgeStyle;rounded=1;orthogonalLoop=1;jettySize=auto;html=1;curved=0;strokeWidth=2;exitX=0.003;exitY=0.186;exitDx=0;exitDy=0;entryX=1;entryY=0.5;entryDx=0;entryDy=0;fontSize=25;exitPerimeter=0;" parent="WIyWlLk6GJQsqaUBKTNV-1" source="mNPfbvNHgH-7dLo6_KG_-27" target="mNPfbvNHgH-7dLo6_KG_-102" edge="1">
          <mxGeometry relative="1" as="geometry">
            <mxPoint x="468" y="225" as="sourcePoint" />
            <mxPoint x="408" y="226" as="targetPoint" />
            <Array as="points" />
          </mxGeometry>
        </mxCell>
        <mxCell id="mNPfbvNHgH-7dLo6_KG_-111" style="edgeStyle=orthogonalEdgeStyle;rounded=1;orthogonalLoop=1;jettySize=auto;html=1;curved=0;strokeWidth=2;entryX=1;entryY=0.5;entryDx=0;entryDy=0;fontSize=25;" parent="WIyWlLk6GJQsqaUBKTNV-1" source="mNPfbvNHgH-7dLo6_KG_-49" target="zkfFHV4jXpPFQw0GAbJ--18" edge="1">
          <mxGeometry relative="1" as="geometry">
            <mxPoint x="704" y="650" as="targetPoint" />
            <Array as="points">
              <mxPoint x="704" y="471" />
              <mxPoint x="551" y="471" />
            </Array>
          </mxGeometry>
        </mxCell>
        <mxCell id="G-upI68DP6zv-U2BLRxJ-0" style="edgeStyle=orthogonalEdgeStyle;rounded=1;orthogonalLoop=1;jettySize=auto;html=1;strokeWidth=2;curved=0;fontSize=25;entryX=0;entryY=0.5;entryDx=0;entryDy=0;" parent="WIyWlLk6GJQsqaUBKTNV-1" source="mNPfbvNHgH-7dLo6_KG_-55" target="yNUHk9VUofDZDF6CJBJu-28" edge="1">
          <mxGeometry relative="1" as="geometry">
            <mxPoint x="862" y="665" as="targetPoint" />
            <Array as="points">
              <mxPoint x="692" y="735" />
            </Array>
          </mxGeometry>
        </mxCell>
        <mxCell id="G-upI68DP6zv-U2BLRxJ-1" style="edgeStyle=orthogonalEdgeStyle;rounded=1;orthogonalLoop=1;jettySize=auto;html=1;strokeWidth=2;curved=0;fontSize=25;" parent="WIyWlLk6GJQsqaUBKTNV-1" source="yNUHk9VUofDZDF6CJBJu-25" edge="1">
          <mxGeometry relative="1" as="geometry">
            <Array as="points">
              <mxPoint x="1379" y="648" />
            </Array>
            <mxPoint x="1379" y="385" as="targetPoint" />
          </mxGeometry>
        </mxCell>
        <mxCell id="G-upI68DP6zv-U2BLRxJ-4" value="" style="endArrow=diamondThin;endFill=1;endSize=24;html=1;rounded=1;strokeWidth=2;exitX=0;exitY=0.5;exitDx=0;exitDy=0;entryX=0.616;entryY=1.058;entryDx=0;entryDy=0;entryPerimeter=0;curved=0;fontSize=25;" parent="WIyWlLk6GJQsqaUBKTNV-1" source="mNPfbvNHgH-7dLo6_KG_-57" target="mNPfbvNHgH-7dLo6_KG_-79" edge="1">
          <mxGeometry width="160" relative="1" as="geometry">
            <mxPoint x="297" y="1060" as="sourcePoint" />
            <mxPoint x="457" y="1060" as="targetPoint" />
            <Array as="points">
              <mxPoint x="3" y="1131" />
            </Array>
          </mxGeometry>
        </mxCell>
        <mxCell id="pbMIqYxpZXbtXTmgva8M-4" value="" style="group;strokeWidth=2;fontSize=25;" parent="WIyWlLk6GJQsqaUBKTNV-1" vertex="1" connectable="0">
          <mxGeometry x="729" y="374" width="105" height="30" as="geometry" />
        </mxCell>
        <mxCell id="Pei02myCYMl1iP3rMed8-56" value="" style="triangle;whiteSpace=wrap;html=1;rotation=90;fontSize=25;strokeWidth=2;fillColor=#000000;" parent="pbMIqYxpZXbtXTmgva8M-4" vertex="1">
          <mxGeometry x="89.5504306751876" y="12.5" width="14.06223951097527" height="11" as="geometry" />
        </mxCell>
        <mxCell id="pbMIqYxpZXbtXTmgva8M-1" value="entertains" style="text;html=1;align=center;verticalAlign=middle;whiteSpace=wrap;rounded=0;rotation=0;fontSize=25;strokeWidth=2;" parent="pbMIqYxpZXbtXTmgva8M-4" vertex="1">
          <mxGeometry width="70.01944984717976" height="30" as="geometry" />
        </mxCell>
        <mxCell id="pbMIqYxpZXbtXTmgva8M-7" value="" style="group;strokeWidth=2;fontSize=25;" parent="WIyWlLk6GJQsqaUBKTNV-1" vertex="1" connectable="0">
          <mxGeometry x="-145" y="408" width="115.98" height="30" as="geometry" />
        </mxCell>
        <mxCell id="pbMIqYxpZXbtXTmgva8M-5" value="entertains" style="text;html=1;align=center;verticalAlign=middle;whiteSpace=wrap;rounded=0;rotation=0;fontSize=25;strokeWidth=2;" parent="pbMIqYxpZXbtXTmgva8M-7" vertex="1">
          <mxGeometry width="77.34148374548482" height="30" as="geometry" />
        </mxCell>
        <mxCell id="pbMIqYxpZXbtXTmgva8M-6" value="" style="triangle;whiteSpace=wrap;html=1;rotation=90;fontSize=25;strokeWidth=2;fillColor=#000000;" parent="pbMIqYxpZXbtXTmgva8M-7" vertex="1">
          <mxGeometry x="94.12398999722146" y="12.5" width="15.532747985551536" height="11" as="geometry" />
        </mxCell>
        <mxCell id="pbMIqYxpZXbtXTmgva8M-11" value="" style="group;strokeWidth=2;fontSize=25;" parent="WIyWlLk6GJQsqaUBKTNV-1" vertex="1" connectable="0">
          <mxGeometry x="289.995420950264" y="225" width="136" height="30" as="geometry" />
        </mxCell>
        <mxCell id="pbMIqYxpZXbtXTmgva8M-9" value="" style="triangle;whiteSpace=wrap;html=1;rotation=-180;fontSize=25;strokeWidth=2;fillColor=#000000;container=0;" parent="pbMIqYxpZXbtXTmgva8M-11" vertex="1">
          <mxGeometry y="8.5" width="14.06223951097527" height="11" as="geometry" />
        </mxCell>
        <mxCell id="pbMIqYxpZXbtXTmgva8M-10" value="belongs to" style="text;html=1;align=center;verticalAlign=middle;whiteSpace=wrap;rounded=0;rotation=0;fontSize=25;strokeWidth=2;container=0;" parent="pbMIqYxpZXbtXTmgva8M-11" vertex="1">
          <mxGeometry x="15.48" width="120.52" height="30" as="geometry" />
        </mxCell>
        <mxCell id="pbMIqYxpZXbtXTmgva8M-15" value="" style="group;strokeWidth=2;fontSize=25;" parent="WIyWlLk6GJQsqaUBKTNV-1" vertex="1" connectable="0">
          <mxGeometry x="1247" y="470" width="62.975000000000136" height="30" as="geometry" />
        </mxCell>
        <mxCell id="pbMIqYxpZXbtXTmgva8M-13" value="" style="triangle;whiteSpace=wrap;html=1;rotation=90;fontSize=25;strokeWidth=2;fillColor=#000000;" parent="pbMIqYxpZXbtXTmgva8M-15" vertex="1">
          <mxGeometry x="51.450000000000045" y="11.5" width="12.05" height="11" as="geometry" />
        </mxCell>
        <mxCell id="pbMIqYxpZXbtXTmgva8M-14" value="files" style="text;html=1;align=center;verticalAlign=middle;whiteSpace=wrap;rounded=0;rotation=0;fontSize=25;strokeWidth=2;" parent="pbMIqYxpZXbtXTmgva8M-15" vertex="1">
          <mxGeometry width="51" height="30" as="geometry" />
        </mxCell>
        <mxCell id="pbMIqYxpZXbtXTmgva8M-19" value="" style="group;strokeWidth=2;fontSize=25;" parent="WIyWlLk6GJQsqaUBKTNV-1" vertex="1" connectable="0">
          <mxGeometry x="676" y="704" width="79.5" height="30" as="geometry" />
        </mxCell>
        <mxCell id="pbMIqYxpZXbtXTmgva8M-17" value="" style="triangle;whiteSpace=wrap;html=1;rotation=0;fontSize=25;strokeWidth=2;fillColor=#000000;container=0;" parent="pbMIqYxpZXbtXTmgva8M-19" vertex="1">
          <mxGeometry x="67.45000000000005" y="12.5" width="12.05" height="11" as="geometry" />
        </mxCell>
        <mxCell id="pbMIqYxpZXbtXTmgva8M-18" value="triggers" style="text;html=1;align=center;verticalAlign=middle;whiteSpace=wrap;rounded=0;rotation=0;fontSize=25;strokeWidth=2;container=0;" parent="pbMIqYxpZXbtXTmgva8M-19" vertex="1">
          <mxGeometry x="-14" width="74" height="30" as="geometry" />
        </mxCell>
        <mxCell id="pbMIqYxpZXbtXTmgva8M-23" value="" style="group;strokeWidth=2;fontSize=25;" parent="WIyWlLk6GJQsqaUBKTNV-1" vertex="1" connectable="0">
          <mxGeometry x="1281" y="602" width="91.98" height="30" as="geometry" />
        </mxCell>
        <mxCell id="pbMIqYxpZXbtXTmgva8M-21" value="" style="triangle;whiteSpace=wrap;html=1;rotation=90;fontSize=25;strokeWidth=2;fillColor=#000000;container=0;" parent="pbMIqYxpZXbtXTmgva8M-23" vertex="1">
          <mxGeometry x="78.02712734452115" y="11.5" width="14.588469891411624" height="11" as="geometry" />
        </mxCell>
        <mxCell id="pbMIqYxpZXbtXTmgva8M-22" value="recieves" style="text;html=1;align=center;verticalAlign=middle;whiteSpace=wrap;rounded=0;rotation=0;fontSize=25;strokeWidth=2;container=0;" parent="pbMIqYxpZXbtXTmgva8M-23" vertex="1">
          <mxGeometry width="61.74373149062181" height="30" as="geometry" />
        </mxCell>
        <mxCell id="pbMIqYxpZXbtXTmgva8M-24" value="" style="group;strokeWidth=2;fontSize=25;" parent="WIyWlLk6GJQsqaUBKTNV-1" vertex="1" connectable="0">
          <mxGeometry x="1335" y="662" width="92.98" height="30" as="geometry" />
        </mxCell>
        <mxCell id="pbMIqYxpZXbtXTmgva8M-25" value="" style="triangle;whiteSpace=wrap;html=1;rotation=90;fontSize=25;strokeWidth=2;fillColor=#000000;container=0;" parent="pbMIqYxpZXbtXTmgva8M-24" vertex="1">
          <mxGeometry x="78.87543270812759" y="11.5" width="14.747074695623535" height="11" as="geometry" />
        </mxCell>
        <mxCell id="pbMIqYxpZXbtXTmgva8M-26" value="submits" style="text;html=1;align=center;verticalAlign=middle;whiteSpace=wrap;rounded=0;rotation=0;fontSize=25;strokeWidth=2;container=0;" parent="pbMIqYxpZXbtXTmgva8M-24" vertex="1">
          <mxGeometry width="62.41500493583404" height="30" as="geometry" />
        </mxCell>
        <mxCell id="pbMIqYxpZXbtXTmgva8M-31" value="" style="group;strokeWidth=2;fontSize=25;" parent="WIyWlLk6GJQsqaUBKTNV-1" vertex="1" connectable="0">
          <mxGeometry x="153" y="960" width="192" height="30" as="geometry" />
        </mxCell>
        <mxCell id="pbMIqYxpZXbtXTmgva8M-32" value="associates with" style="text;html=1;align=center;verticalAlign=middle;whiteSpace=wrap;rounded=0;rotation=0;fontSize=25;strokeWidth=2;" parent="pbMIqYxpZXbtXTmgva8M-31" vertex="1">
          <mxGeometry x="-17" width="188.16" height="30" as="geometry" />
        </mxCell>
        <mxCell id="pbMIqYxpZXbtXTmgva8M-33" value="" style="triangle;whiteSpace=wrap;html=1;rotation=-90;fontSize=25;strokeWidth=2;fillColor=#000000;" parent="pbMIqYxpZXbtXTmgva8M-31" vertex="1">
          <mxGeometry x="163.23255813953494" y="10.5" width="17.934883720930234" height="11" as="geometry" />
        </mxCell>
        <mxCell id="pbMIqYxpZXbtXTmgva8M-34" value="" style="group;strokeWidth=2;fontSize=25;" parent="WIyWlLk6GJQsqaUBKTNV-1" vertex="1" connectable="0">
          <mxGeometry x="1398" y="1016" width="83.98" height="30" as="geometry" />
        </mxCell>
        <mxCell id="pbMIqYxpZXbtXTmgva8M-35" value="" style="triangle;whiteSpace=wrap;html=1;rotation=90;fontSize=25;strokeWidth=2;fillColor=#000000;container=0;" parent="pbMIqYxpZXbtXTmgva8M-34" vertex="1">
          <mxGeometry x="71.24068443566955" y="11.5" width="13.319631457716332" height="11" as="geometry" />
        </mxCell>
        <mxCell id="pbMIqYxpZXbtXTmgva8M-36" value="access" style="text;html=1;align=center;verticalAlign=middle;whiteSpace=wrap;rounded=0;rotation=0;fontSize=25;strokeWidth=2;container=0;" parent="pbMIqYxpZXbtXTmgva8M-34" vertex="1">
          <mxGeometry x="5.526818032247441" width="56.373543928923894" height="30" as="geometry" />
        </mxCell>
        <mxCell id="pbMIqYxpZXbtXTmgva8M-37" value="" style="group;strokeWidth=2;fontSize=25;" parent="WIyWlLk6GJQsqaUBKTNV-1" vertex="1" connectable="0">
          <mxGeometry x="1474" y="1204" width="75.97500000000014" height="30" as="geometry" />
        </mxCell>
        <mxCell id="pbMIqYxpZXbtXTmgva8M-38" value="" style="triangle;whiteSpace=wrap;html=1;rotation=90;fontSize=25;strokeWidth=2;fillColor=#000000;container=0;" parent="pbMIqYxpZXbtXTmgva8M-37" vertex="1">
          <mxGeometry x="64.45000000000005" y="11.5" width="12.05" height="11" as="geometry" />
        </mxCell>
        <mxCell id="pbMIqYxpZXbtXTmgva8M-39" value="attends" style="text;html=1;align=center;verticalAlign=middle;whiteSpace=wrap;rounded=0;rotation=0;fontSize=25;strokeWidth=2;container=0;" parent="pbMIqYxpZXbtXTmgva8M-37" vertex="1">
          <mxGeometry x="-10" width="66" height="30" as="geometry" />
        </mxCell>
        <mxCell id="pbMIqYxpZXbtXTmgva8M-43" value="" style="group;strokeWidth=2;fontSize=25;" parent="WIyWlLk6GJQsqaUBKTNV-1" vertex="1" connectable="0">
          <mxGeometry x="-225" y="1127" width="92" height="30" as="geometry" />
        </mxCell>
        <mxCell id="pbMIqYxpZXbtXTmgva8M-44" value="creates" style="text;html=1;align=center;verticalAlign=middle;whiteSpace=wrap;rounded=0;rotation=0;fontSize=25;strokeWidth=2;" parent="pbMIqYxpZXbtXTmgva8M-43" vertex="1">
          <mxGeometry x="6.135037510419557" width="61.35037510419557" height="30" as="geometry" />
        </mxCell>
        <mxCell id="pbMIqYxpZXbtXTmgva8M-45" value="" style="triangle;whiteSpace=wrap;html=1;rotation=90;fontSize=25;strokeWidth=2;fillColor=#000000;" parent="pbMIqYxpZXbtXTmgva8M-43" vertex="1">
          <mxGeometry x="78.05807168657961" y="12.5" width="12.321200333425944" height="11" as="geometry" />
        </mxCell>
        <mxCell id="pbMIqYxpZXbtXTmgva8M-46" value="" style="group;strokeWidth=2;fontSize=25;" parent="WIyWlLk6GJQsqaUBKTNV-1" vertex="1" connectable="0">
          <mxGeometry x="-262" y="1320" width="89.97500000000005" height="30" as="geometry" />
        </mxCell>
        <mxCell id="pbMIqYxpZXbtXTmgva8M-47" value="arrange" style="text;html=1;align=center;verticalAlign=middle;whiteSpace=wrap;rounded=0;rotation=0;fontSize=25;strokeWidth=2;" parent="pbMIqYxpZXbtXTmgva8M-46" vertex="1">
          <mxGeometry x="4" width="60" height="30" as="geometry" />
        </mxCell>
        <mxCell id="pbMIqYxpZXbtXTmgva8M-48" value="" style="triangle;whiteSpace=wrap;html=1;rotation=90;fontSize=25;strokeWidth=2;fillColor=#000000;" parent="pbMIqYxpZXbtXTmgva8M-46" vertex="1">
          <mxGeometry x="77.45000000000005" y="12.5" width="12.05" height="11" as="geometry" />
        </mxCell>
        <mxCell id="pbMIqYxpZXbtXTmgva8M-49" value="" style="group;strokeWidth=2;fontSize=25;" parent="WIyWlLk6GJQsqaUBKTNV-1" vertex="1" connectable="0">
          <mxGeometry x="-324.5" y="1599" width="107.5" height="30" as="geometry" />
        </mxCell>
        <mxCell id="pbMIqYxpZXbtXTmgva8M-50" value="conducts" style="text;html=1;align=center;verticalAlign=middle;whiteSpace=wrap;rounded=0;rotation=0;fontSize=25;strokeWidth=2;" parent="pbMIqYxpZXbtXTmgva8M-49" vertex="1">
          <mxGeometry x="11.947763267574318" width="71.68657960544593" height="30" as="geometry" />
        </mxCell>
        <mxCell id="pbMIqYxpZXbtXTmgva8M-51" value="" style="triangle;whiteSpace=wrap;html=1;rotation=90;fontSize=25;strokeWidth=2;fillColor=#000000;" parent="pbMIqYxpZXbtXTmgva8M-49" vertex="1">
          <mxGeometry x="95.89587385384829" y="12.5" width="14.397054737427055" height="11" as="geometry" />
        </mxCell>
        <mxCell id="pbMIqYxpZXbtXTmgva8M-52" value="Awareness Campaign" style="swimlane;fontStyle=1;align=center;verticalAlign=top;childLayout=stackLayout;horizontal=1;startSize=42;horizontalStack=0;resizeParent=1;resizeLast=0;collapsible=1;marginBottom=0;rounded=0;shadow=0;strokeWidth=2;fontSize=25;" parent="WIyWlLk6GJQsqaUBKTNV-1" vertex="1">
          <mxGeometry x="441" y="1848" width="289" height="353" as="geometry">
            <mxRectangle x="130" y="380" width="160" height="26" as="alternateBounds" />
          </mxGeometry>
        </mxCell>
        <mxCell id="pbMIqYxpZXbtXTmgva8M-53" value="campaignId: String" style="text;align=left;verticalAlign=top;spacingLeft=4;spacingRight=4;overflow=hidden;rotatable=0;points=[[0,0.5],[1,0.5]];portConstraint=eastwest;fontSize=25;strokeWidth=2;" parent="pbMIqYxpZXbtXTmgva8M-52" vertex="1">
          <mxGeometry y="42" width="289" height="36" as="geometry" />
        </mxCell>
        <mxCell id="pbMIqYxpZXbtXTmgva8M-54" value="title: String" style="text;align=left;verticalAlign=top;spacingLeft=4;spacingRight=4;overflow=hidden;rotatable=0;points=[[0,0.5],[1,0.5]];portConstraint=eastwest;rounded=0;shadow=0;html=0;fontSize=25;strokeWidth=2;" parent="pbMIqYxpZXbtXTmgva8M-52" vertex="1">
          <mxGeometry y="78" width="289" height="34" as="geometry" />
        </mxCell>
        <mxCell id="pbMIqYxpZXbtXTmgva8M-55" value="description: String" style="text;align=left;verticalAlign=top;spacingLeft=4;spacingRight=4;overflow=hidden;rotatable=0;points=[[0,0.5],[1,0.5]];portConstraint=eastwest;fontStyle=0;fontSize=25;strokeWidth=2;" parent="pbMIqYxpZXbtXTmgva8M-52" vertex="1">
          <mxGeometry y="112" width="289" height="38" as="geometry" />
        </mxCell>
        <mxCell id="pbMIqYxpZXbtXTmgva8M-69" style="text;align=left;verticalAlign=top;spacingLeft=4;spacingRight=4;overflow=hidden;rotatable=0;points=[[0,0.5],[1,0.5]];portConstraint=eastwest;fontSize=25;strokeWidth=2;" parent="pbMIqYxpZXbtXTmgva8M-52" vertex="1">
          <mxGeometry y="150" width="289" height="31" as="geometry" />
        </mxCell>
        <mxCell id="pbMIqYxpZXbtXTmgva8M-57" style="text;align=left;verticalAlign=top;spacingLeft=4;spacingRight=4;overflow=hidden;rotatable=0;points=[[0,0.5],[1,0.5]];portConstraint=eastwest;fontSize=25;strokeWidth=2;" parent="pbMIqYxpZXbtXTmgva8M-52" vertex="1">
          <mxGeometry y="181" width="289" height="36" as="geometry" />
        </mxCell>
        <mxCell id="pbMIqYxpZXbtXTmgva8M-59" value="" style="line;html=1;strokeWidth=2;align=left;verticalAlign=middle;spacingTop=-1;spacingLeft=3;spacingRight=3;rotatable=0;labelPosition=right;points=[];portConstraint=eastwest;fontSize=25;" parent="pbMIqYxpZXbtXTmgva8M-52" vertex="1">
          <mxGeometry y="217" width="289" height="8" as="geometry" />
        </mxCell>
        <mxCell id="pbMIqYxpZXbtXTmgva8M-60" value="CreateCampaign(): void" style="text;align=left;verticalAlign=top;spacingLeft=4;spacingRight=4;overflow=hidden;rotatable=0;points=[[0,0.5],[1,0.5]];portConstraint=eastwest;fontSize=25;strokeWidth=2;" parent="pbMIqYxpZXbtXTmgva8M-52" vertex="1">
          <mxGeometry y="225" width="289" height="44" as="geometry" />
        </mxCell>
        <mxCell id="pbMIqYxpZXbtXTmgva8M-63" value="RunCampaign():void" style="text;align=left;verticalAlign=top;spacingLeft=4;spacingRight=4;overflow=hidden;rotatable=0;points=[[0,0.5],[1,0.5]];portConstraint=eastwest;fontSize=25;strokeWidth=2;" parent="pbMIqYxpZXbtXTmgva8M-52" vertex="1">
          <mxGeometry y="269" width="289" height="41" as="geometry" />
        </mxCell>
        <mxCell id="pbMIqYxpZXbtXTmgva8M-70" style="text;align=left;verticalAlign=top;spacingLeft=4;spacingRight=4;overflow=hidden;rotatable=0;points=[[0,0.5],[1,0.5]];portConstraint=eastwest;fontSize=25;strokeWidth=2;" parent="pbMIqYxpZXbtXTmgva8M-52" vertex="1">
          <mxGeometry y="310" width="289" height="43" as="geometry" />
        </mxCell>
        <mxCell id="pbMIqYxpZXbtXTmgva8M-67" value="" style="group;strokeWidth=2;fontSize=25;" parent="WIyWlLk6GJQsqaUBKTNV-1" vertex="1" connectable="0">
          <mxGeometry x="1433" y="1761" width="175.53" height="30" as="geometry" />
        </mxCell>
        <mxCell id="pbMIqYxpZXbtXTmgva8M-65" value="" style="triangle;whiteSpace=wrap;html=1;rotation=90;fontSize=25;strokeWidth=2;fillColor=#000000;container=0;" parent="pbMIqYxpZXbtXTmgva8M-67" vertex="1">
          <mxGeometry x="161.33611647079448" y="11.5" width="14.840459568496746" height="11" as="geometry" />
        </mxCell>
        <mxCell id="pbMIqYxpZXbtXTmgva8M-66" value="participates in" style="text;html=1;align=center;verticalAlign=middle;whiteSpace=wrap;rounded=0;rotation=0;fontSize=25;strokeWidth=2;container=0;" parent="pbMIqYxpZXbtXTmgva8M-67" vertex="1">
          <mxGeometry width="169.9571303280125" height="30" as="geometry" />
        </mxCell>
        <mxCell id="pbMIqYxpZXbtXTmgva8M-72" value="" style="group;strokeWidth=2;fontSize=25;" parent="WIyWlLk6GJQsqaUBKTNV-1" vertex="1" connectable="0">
          <mxGeometry x="1522" y="1853" width="142.5250000000001" height="30" as="geometry" />
        </mxCell>
        <mxCell id="pbMIqYxpZXbtXTmgva8M-73" value="" style="triangle;whiteSpace=wrap;html=1;rotation=90;fontSize=25;strokeWidth=2;fillColor=#000000;container=0;" parent="pbMIqYxpZXbtXTmgva8M-72" vertex="1">
          <mxGeometry x="131" y="11.5" width="12.05" height="11" as="geometry" />
        </mxCell>
        <mxCell id="pbMIqYxpZXbtXTmgva8M-74" value="view" style="text;html=1;align=center;verticalAlign=middle;whiteSpace=wrap;rounded=0;rotation=0;fontSize=25;strokeWidth=2;container=0;" parent="pbMIqYxpZXbtXTmgva8M-72" vertex="1">
          <mxGeometry x="71" width="67" height="30" as="geometry" />
        </mxCell>
        <mxCell id="pbMIqYxpZXbtXTmgva8M-75" value="" style="group;strokeWidth=2;fontSize=25;" parent="WIyWlLk6GJQsqaUBKTNV-1" vertex="1" connectable="0">
          <mxGeometry x="-372" y="1925" width="108" height="30" as="geometry" />
        </mxCell>
        <mxCell id="pbMIqYxpZXbtXTmgva8M-76" value="organize" style="text;html=1;align=center;verticalAlign=middle;whiteSpace=wrap;rounded=0;rotation=0;fontSize=25;strokeWidth=2;" parent="pbMIqYxpZXbtXTmgva8M-75" vertex="1">
          <mxGeometry x="12.003334259516528" width="72.02000555709917" height="30" as="geometry" />
        </mxCell>
        <mxCell id="pbMIqYxpZXbtXTmgva8M-77" value="" style="triangle;whiteSpace=wrap;html=1;rotation=90;fontSize=25;strokeWidth=2;fillColor=#000000;" parent="pbMIqYxpZXbtXTmgva8M-75" vertex="1">
          <mxGeometry x="94.56515698805224" y="11.5" width="14.464017782717415" height="11" as="geometry" />
        </mxCell>
        <mxCell id="pbMIqYxpZXbtXTmgva8M-86" style="edgeStyle=orthogonalEdgeStyle;rounded=1;orthogonalLoop=1;jettySize=auto;html=1;entryX=1;entryY=0.5;entryDx=0;entryDy=0;curved=0;strokeWidth=2;fontSize=25;" parent="WIyWlLk6GJQsqaUBKTNV-1" source="pbMIqYxpZXbtXTmgva8M-78" target="zkfFHV4jXpPFQw0GAbJ--20" edge="1">
          <mxGeometry relative="1" as="geometry" />
        </mxCell>
        <mxCell id="pbMIqYxpZXbtXTmgva8M-78" value="Statistics" style="swimlane;fontStyle=1;align=center;verticalAlign=top;childLayout=stackLayout;horizontal=1;startSize=34;horizontalStack=0;resizeParent=1;resizeLast=0;collapsible=1;marginBottom=0;rounded=0;shadow=0;strokeWidth=2;fontSize=25;" parent="WIyWlLk6GJQsqaUBKTNV-1" vertex="1">
          <mxGeometry x="881" y="226" width="311" height="261" as="geometry">
            <mxRectangle x="130" y="380" width="160" height="26" as="alternateBounds" />
          </mxGeometry>
        </mxCell>
        <mxCell id="pbMIqYxpZXbtXTmgva8M-79" value="statsId:int" style="text;align=left;verticalAlign=top;spacingLeft=4;spacingRight=4;overflow=hidden;rotatable=0;points=[[0,0.5],[1,0.5]];portConstraint=eastwest;fontSize=25;strokeWidth=2;" parent="pbMIqYxpZXbtXTmgva8M-78" vertex="1">
          <mxGeometry y="34" width="311" height="35" as="geometry" />
        </mxCell>
        <mxCell id="pbMIqYxpZXbtXTmgva8M-80" value="stats: Object" style="text;align=left;verticalAlign=top;spacingLeft=4;spacingRight=4;overflow=hidden;rotatable=0;points=[[0,0.5],[1,0.5]];portConstraint=eastwest;fontSize=25;strokeWidth=2;" parent="pbMIqYxpZXbtXTmgva8M-78" vertex="1">
          <mxGeometry y="69" width="311" height="34" as="geometry" />
        </mxCell>
        <mxCell id="pbMIqYxpZXbtXTmgva8M-81" style="text;align=left;verticalAlign=top;spacingLeft=4;spacingRight=4;overflow=hidden;rotatable=0;points=[[0,0.5],[1,0.5]];portConstraint=eastwest;fontSize=25;strokeWidth=2;" parent="pbMIqYxpZXbtXTmgva8M-78" vertex="1">
          <mxGeometry y="103" width="311" height="26" as="geometry" />
        </mxCell>
        <mxCell id="pbMIqYxpZXbtXTmgva8M-82" value="" style="line;html=1;strokeWidth=2;align=left;verticalAlign=middle;spacingTop=-1;spacingLeft=3;spacingRight=3;rotatable=0;labelPosition=right;points=[];portConstraint=eastwest;fontSize=25;" parent="pbMIqYxpZXbtXTmgva8M-78" vertex="1">
          <mxGeometry y="129" width="311" height="8" as="geometry" />
        </mxCell>
        <mxCell id="pbMIqYxpZXbtXTmgva8M-83" value="ComputeStats(): Object" style="text;align=left;verticalAlign=top;spacingLeft=4;spacingRight=4;overflow=hidden;rotatable=0;points=[[0,0.5],[1,0.5]];portConstraint=eastwest;fontSize=25;strokeWidth=2;" parent="pbMIqYxpZXbtXTmgva8M-78" vertex="1">
          <mxGeometry y="137" width="311" height="31" as="geometry" />
        </mxCell>
        <mxCell id="pbMIqYxpZXbtXTmgva8M-84" value="ViewStats(): void" style="text;align=left;verticalAlign=top;spacingLeft=4;spacingRight=4;overflow=hidden;rotatable=0;points=[[0,0.5],[1,0.5]];portConstraint=eastwest;fontSize=25;strokeWidth=2;" parent="pbMIqYxpZXbtXTmgva8M-78" vertex="1">
          <mxGeometry y="168" width="311" height="31" as="geometry" />
        </mxCell>
        <mxCell id="pbMIqYxpZXbtXTmgva8M-89" value="RequestStats(): void" style="text;align=left;verticalAlign=top;spacingLeft=4;spacingRight=4;overflow=hidden;rotatable=0;points=[[0,0.5],[1,0.5]];portConstraint=eastwest;fontSize=25;strokeWidth=2;" parent="pbMIqYxpZXbtXTmgva8M-78" vertex="1">
          <mxGeometry y="199" width="311" height="31" as="geometry" />
        </mxCell>
        <mxCell id="pbMIqYxpZXbtXTmgva8M-88" style="text;align=left;verticalAlign=top;spacingLeft=4;spacingRight=4;overflow=hidden;rotatable=0;points=[[0,0.5],[1,0.5]];portConstraint=eastwest;fontSize=25;strokeWidth=2;" parent="pbMIqYxpZXbtXTmgva8M-78" vertex="1">
          <mxGeometry y="230" width="311" height="31" as="geometry" />
        </mxCell>
        <mxCell id="pbMIqYxpZXbtXTmgva8M-87" style="edgeStyle=orthogonalEdgeStyle;rounded=1;orthogonalLoop=1;jettySize=auto;html=1;entryX=0.5;entryY=0;entryDx=0;entryDy=0;curved=0;strokeWidth=2;fontSize=25;" parent="WIyWlLk6GJQsqaUBKTNV-1" source="mNPfbvNHgH-7dLo6_KG_-22" target="pbMIqYxpZXbtXTmgva8M-78" edge="1">
          <mxGeometry relative="1" as="geometry" />
        </mxCell>
        <mxCell id="pbMIqYxpZXbtXTmgva8M-90" value="" style="group;strokeWidth=2;fontSize=25;" parent="WIyWlLk6GJQsqaUBKTNV-1" vertex="1" connectable="0">
          <mxGeometry x="1129" y="141" width="70.98" height="30" as="geometry" />
        </mxCell>
        <mxCell id="pbMIqYxpZXbtXTmgva8M-91" value="" style="triangle;whiteSpace=wrap;html=1;rotation=90;fontSize=25;strokeWidth=2;fillColor=#000000;" parent="pbMIqYxpZXbtXTmgva8M-90" vertex="1">
          <mxGeometry x="57.990011909487826" y="11.5" width="13.581722905915019" height="11" as="geometry" />
        </mxCell>
        <mxCell id="pbMIqYxpZXbtXTmgva8M-92" value="views" style="text;html=1;align=center;verticalAlign=middle;whiteSpace=wrap;rounded=0;rotation=0;fontSize=25;strokeWidth=2;" parent="pbMIqYxpZXbtXTmgva8M-90" vertex="1">
          <mxGeometry width="57.4828106391424" height="30" as="geometry" />
        </mxCell>
        <mxCell id="pbMIqYxpZXbtXTmgva8M-100" value="&lt;b&gt;1&lt;/b&gt;" style="text;html=1;align=center;verticalAlign=middle;whiteSpace=wrap;rounded=0;rotation=0;fontSize=25;strokeWidth=2;" parent="WIyWlLk6GJQsqaUBKTNV-1" vertex="1">
          <mxGeometry x="279" y="193" width="24" height="30" as="geometry" />
        </mxCell>
        <mxCell id="pbMIqYxpZXbtXTmgva8M-101" value="&lt;b&gt;1&lt;/b&gt;" style="text;html=1;align=center;verticalAlign=middle;whiteSpace=wrap;rounded=0;rotation=0;fontSize=25;strokeWidth=2;" parent="WIyWlLk6GJQsqaUBKTNV-1" vertex="1">
          <mxGeometry x="421" y="193" width="24" height="30" as="geometry" />
        </mxCell>
        <mxCell id="pbMIqYxpZXbtXTmgva8M-102" value="&lt;b&gt;1&lt;/b&gt;" style="text;html=1;align=center;verticalAlign=middle;whiteSpace=wrap;rounded=0;rotation=0;fontSize=25;strokeWidth=2;" parent="WIyWlLk6GJQsqaUBKTNV-1" vertex="1">
          <mxGeometry x="680.5" y="321" width="21" height="30" as="geometry" />
        </mxCell>
        <mxCell id="pbMIqYxpZXbtXTmgva8M-103" value="&lt;b&gt;1..*&lt;/b&gt;" style="text;html=1;align=center;verticalAlign=middle;whiteSpace=wrap;rounded=0;rotation=0;fontSize=25;strokeWidth=2;" parent="WIyWlLk6GJQsqaUBKTNV-1" vertex="1">
          <mxGeometry x="516" y="438" width="24" height="30" as="geometry" />
        </mxCell>
        <mxCell id="pbMIqYxpZXbtXTmgva8M-104" value="&lt;b&gt;1&lt;/b&gt;" style="text;html=1;align=center;verticalAlign=middle;whiteSpace=wrap;rounded=0;rotation=0;fontSize=25;strokeWidth=2;" parent="WIyWlLk6GJQsqaUBKTNV-1" vertex="1">
          <mxGeometry x="-165" y="370.5" width="15" height="30" as="geometry" />
        </mxCell>
        <mxCell id="pbMIqYxpZXbtXTmgva8M-105" value="&lt;b&gt;1..*&lt;/b&gt;" style="text;html=1;align=center;verticalAlign=middle;whiteSpace=wrap;rounded=0;rotation=0;fontSize=25;strokeWidth=2;" parent="WIyWlLk6GJQsqaUBKTNV-1" vertex="1">
          <mxGeometry x="171" y="436" width="24" height="30" as="geometry" />
        </mxCell>
        <mxCell id="pbMIqYxpZXbtXTmgva8M-106" value="&lt;b&gt;1&lt;/b&gt;" style="text;html=1;align=center;verticalAlign=middle;whiteSpace=wrap;rounded=0;rotation=0;fontSize=25;strokeWidth=2;" parent="WIyWlLk6GJQsqaUBKTNV-1" vertex="1">
          <mxGeometry x="1261" y="142" width="24" height="30" as="geometry" />
        </mxCell>
        <mxCell id="pbMIqYxpZXbtXTmgva8M-107" value="&lt;b&gt;1..*&lt;/b&gt;" style="text;html=1;align=center;verticalAlign=middle;whiteSpace=wrap;rounded=0;rotation=0;fontSize=25;strokeWidth=2;" parent="WIyWlLk6GJQsqaUBKTNV-1" vertex="1">
          <mxGeometry x="1005" y="193" width="24" height="30" as="geometry" />
        </mxCell>
        <mxCell id="pbMIqYxpZXbtXTmgva8M-108" value="&lt;b&gt;1&lt;/b&gt;" style="text;html=1;align=center;verticalAlign=middle;whiteSpace=wrap;rounded=0;rotation=0;fontSize=25;strokeWidth=2;" parent="WIyWlLk6GJQsqaUBKTNV-1" vertex="1">
          <mxGeometry x="1014" y="487" width="24" height="30" as="geometry" />
        </mxCell>
        <mxCell id="pbMIqYxpZXbtXTmgva8M-109" value="&lt;b&gt;1..*&lt;/b&gt;" style="text;html=1;align=center;verticalAlign=middle;whiteSpace=wrap;rounded=0;rotation=0;fontSize=25;strokeWidth=2;" parent="WIyWlLk6GJQsqaUBKTNV-1" vertex="1">
          <mxGeometry x="521" y="559" width="24" height="30" as="geometry" />
        </mxCell>
        <mxCell id="pbMIqYxpZXbtXTmgva8M-110" value="&lt;b&gt;1..*&lt;/b&gt;" style="text;html=1;align=center;verticalAlign=middle;whiteSpace=wrap;rounded=0;rotation=0;fontSize=25;strokeWidth=2;" parent="WIyWlLk6GJQsqaUBKTNV-1" vertex="1">
          <mxGeometry x="523" y="507" width="24" height="30" as="geometry" />
        </mxCell>
        <mxCell id="pbMIqYxpZXbtXTmgva8M-111" value="&lt;b&gt;1&lt;/b&gt;" style="text;html=1;align=center;verticalAlign=middle;whiteSpace=wrap;rounded=0;rotation=0;fontSize=25;strokeWidth=2;" parent="WIyWlLk6GJQsqaUBKTNV-1" vertex="1">
          <mxGeometry x="1290" y="384" width="24" height="30" as="geometry" />
        </mxCell>
        <mxCell id="pbMIqYxpZXbtXTmgva8M-112" value="&lt;b&gt;1&lt;/b&gt;" style="text;html=1;align=center;verticalAlign=middle;whiteSpace=wrap;rounded=0;rotation=0;fontSize=25;strokeWidth=2;" parent="WIyWlLk6GJQsqaUBKTNV-1" vertex="1">
          <mxGeometry x="503" y="704" width="24" height="30" as="geometry" />
        </mxCell>
        <mxCell id="pbMIqYxpZXbtXTmgva8M-113" value="&lt;b&gt;1..*&lt;/b&gt;" style="text;html=1;align=center;verticalAlign=middle;whiteSpace=wrap;rounded=0;rotation=0;fontSize=25;strokeWidth=2;" parent="WIyWlLk6GJQsqaUBKTNV-1" vertex="1">
          <mxGeometry x="843" y="704" width="24" height="30" as="geometry" />
        </mxCell>
        <mxCell id="pbMIqYxpZXbtXTmgva8M-114" value="&lt;b&gt;1&lt;/b&gt;" style="text;html=1;align=center;verticalAlign=middle;whiteSpace=wrap;rounded=0;rotation=0;fontSize=25;strokeWidth=2;" parent="WIyWlLk6GJQsqaUBKTNV-1" vertex="1">
          <mxGeometry x="481" y="1009" width="24" height="30" as="geometry" />
        </mxCell>
        <mxCell id="pbMIqYxpZXbtXTmgva8M-115" value="&lt;b&gt;1&lt;/b&gt;" style="text;html=1;align=center;verticalAlign=middle;whiteSpace=wrap;rounded=0;rotation=0;fontSize=25;strokeWidth=2;" parent="WIyWlLk6GJQsqaUBKTNV-1" vertex="1">
          <mxGeometry x="325" y="899" width="24" height="30" as="geometry" />
        </mxCell>
        <mxCell id="pbMIqYxpZXbtXTmgva8M-117" value="" style="group;strokeWidth=2;fontSize=25;" parent="WIyWlLk6GJQsqaUBKTNV-1" vertex="1" connectable="0">
          <mxGeometry x="717" y="507" width="55.52" height="30" as="geometry" />
        </mxCell>
        <mxCell id="pbMIqYxpZXbtXTmgva8M-96" value="use" style="text;html=1;align=center;verticalAlign=middle;whiteSpace=wrap;rounded=0;rotation=0;fontSize=25;strokeWidth=2;container=0;" parent="pbMIqYxpZXbtXTmgva8M-117" vertex="1">
          <mxGeometry x="19.71989253089735" width="35.80010746910265" height="30" as="geometry" />
        </mxCell>
        <mxCell id="pbMIqYxpZXbtXTmgva8M-116" value="" style="triangle;whiteSpace=wrap;html=1;rotation=-180;fontSize=25;strokeWidth=2;fillColor=#000000;" parent="pbMIqYxpZXbtXTmgva8M-117" vertex="1">
          <mxGeometry y="11.524999999999977" width="14.379709833422899" height="11" as="geometry" />
        </mxCell>
        <mxCell id="pbMIqYxpZXbtXTmgva8M-118" value="&lt;b&gt;1..*&lt;/b&gt;" style="text;html=1;align=center;verticalAlign=middle;whiteSpace=wrap;rounded=0;rotation=0;fontSize=25;strokeWidth=2;" parent="WIyWlLk6GJQsqaUBKTNV-1" vertex="1">
          <mxGeometry x="1189" y="611" width="24" height="30" as="geometry" />
        </mxCell>
        <mxCell id="pbMIqYxpZXbtXTmgva8M-119" value="&lt;b&gt;1&lt;/b&gt;" style="text;html=1;align=center;verticalAlign=middle;whiteSpace=wrap;rounded=0;rotation=0;fontSize=25;strokeWidth=2;" parent="WIyWlLk6GJQsqaUBKTNV-1" vertex="1">
          <mxGeometry x="1353" y="385" width="24" height="30" as="geometry" />
        </mxCell>
        <mxCell id="pbMIqYxpZXbtXTmgva8M-120" value="&lt;b&gt;1&lt;/b&gt;" style="text;html=1;align=center;verticalAlign=middle;whiteSpace=wrap;rounded=0;rotation=0;fontSize=25;strokeWidth=2;" parent="WIyWlLk6GJQsqaUBKTNV-1" vertex="1">
          <mxGeometry x="1406" y="386" width="24" height="30" as="geometry" />
        </mxCell>
        <mxCell id="pbMIqYxpZXbtXTmgva8M-121" value="&lt;b&gt;1&lt;/b&gt;" style="text;html=1;align=center;verticalAlign=middle;whiteSpace=wrap;rounded=0;rotation=0;fontSize=25;strokeWidth=2;" parent="WIyWlLk6GJQsqaUBKTNV-1" vertex="1">
          <mxGeometry x="1463" y="386" width="24" height="30" as="geometry" />
        </mxCell>
        <mxCell id="pbMIqYxpZXbtXTmgva8M-122" value="&lt;b&gt;1&lt;/b&gt;" style="text;html=1;align=center;verticalAlign=middle;whiteSpace=wrap;rounded=0;rotation=0;fontSize=25;strokeWidth=2;" parent="WIyWlLk6GJQsqaUBKTNV-1" vertex="1">
          <mxGeometry x="1529" y="386" width="24" height="30" as="geometry" />
        </mxCell>
        <mxCell id="pbMIqYxpZXbtXTmgva8M-123" value="&lt;b&gt;1&lt;/b&gt;" style="text;html=1;align=center;verticalAlign=middle;whiteSpace=wrap;rounded=0;rotation=0;fontSize=25;strokeWidth=2;" parent="WIyWlLk6GJQsqaUBKTNV-1" vertex="1">
          <mxGeometry x="1590" y="386" width="24" height="30" as="geometry" />
        </mxCell>
        <mxCell id="pbMIqYxpZXbtXTmgva8M-124" value="&lt;b&gt;1&lt;/b&gt;" style="text;html=1;align=center;verticalAlign=middle;whiteSpace=wrap;rounded=0;rotation=0;fontSize=25;strokeWidth=2;" parent="WIyWlLk6GJQsqaUBKTNV-1" vertex="1">
          <mxGeometry x="1653" y="386" width="24" height="30" as="geometry" />
        </mxCell>
        <mxCell id="pbMIqYxpZXbtXTmgva8M-125" value="&lt;b&gt;1..*&lt;/b&gt;" style="text;html=1;align=center;verticalAlign=middle;whiteSpace=wrap;rounded=0;rotation=0;fontSize=25;strokeWidth=2;" parent="WIyWlLk6GJQsqaUBKTNV-1" vertex="1">
          <mxGeometry x="881" y="908" width="24" height="30" as="geometry" />
        </mxCell>
        <mxCell id="pbMIqYxpZXbtXTmgva8M-126" value="&lt;b&gt;1&lt;/b&gt;" style="text;html=1;align=center;verticalAlign=middle;whiteSpace=wrap;rounded=0;rotation=0;fontSize=25;strokeWidth=2;" parent="WIyWlLk6GJQsqaUBKTNV-1" vertex="1">
          <mxGeometry x="469" y="1167" width="19" height="30" as="geometry" />
        </mxCell>
        <mxCell id="pbMIqYxpZXbtXTmgva8M-127" value="&lt;b&gt;1..*&lt;/b&gt;" style="text;html=1;align=center;verticalAlign=middle;whiteSpace=wrap;rounded=0;rotation=0;fontSize=25;strokeWidth=2;" parent="WIyWlLk6GJQsqaUBKTNV-1" vertex="1">
          <mxGeometry x="1471" y="1331" width="24" height="30" as="geometry" />
        </mxCell>
        <mxCell id="pbMIqYxpZXbtXTmgva8M-128" value="&lt;b&gt;1..*&lt;/b&gt;" style="text;html=1;align=center;verticalAlign=middle;whiteSpace=wrap;rounded=0;rotation=0;fontSize=25;strokeWidth=2;" parent="WIyWlLk6GJQsqaUBKTNV-1" vertex="1">
          <mxGeometry x="748" y="1983" width="24" height="30" as="geometry" />
        </mxCell>
        <mxCell id="pbMIqYxpZXbtXTmgva8M-129" value="&lt;b&gt;1..*&lt;/b&gt;" style="text;html=1;align=center;verticalAlign=middle;whiteSpace=wrap;rounded=0;rotation=0;fontSize=25;strokeWidth=2;" parent="WIyWlLk6GJQsqaUBKTNV-1" vertex="1">
          <mxGeometry x="345" y="1769" width="24" height="30" as="geometry" />
        </mxCell>
        <mxCell id="pbMIqYxpZXbtXTmgva8M-130" value="&lt;b&gt;1&lt;/b&gt;" style="text;html=1;align=center;verticalAlign=middle;whiteSpace=wrap;rounded=0;rotation=0;fontSize=25;strokeWidth=2;" parent="WIyWlLk6GJQsqaUBKTNV-1" vertex="1">
          <mxGeometry x="-232" y="370" width="15" height="30" as="geometry" />
        </mxCell>
        <mxCell id="pbMIqYxpZXbtXTmgva8M-131" value="&lt;b&gt;1&lt;/b&gt;" style="text;html=1;align=center;verticalAlign=middle;whiteSpace=wrap;rounded=0;rotation=0;fontSize=25;strokeWidth=2;" parent="WIyWlLk6GJQsqaUBKTNV-1" vertex="1">
          <mxGeometry x="-282" y="370.5" width="15" height="30" as="geometry" />
        </mxCell>
        <mxCell id="pbMIqYxpZXbtXTmgva8M-132" value="&lt;b&gt;1&lt;/b&gt;" style="text;html=1;align=center;verticalAlign=middle;whiteSpace=wrap;rounded=0;rotation=0;fontSize=25;strokeWidth=2;" parent="WIyWlLk6GJQsqaUBKTNV-1" vertex="1">
          <mxGeometry x="-330" y="370.5" width="15" height="30" as="geometry" />
        </mxCell>
        <mxCell id="pbMIqYxpZXbtXTmgva8M-133" value="&lt;b&gt;1&lt;/b&gt;" style="text;html=1;align=center;verticalAlign=middle;whiteSpace=wrap;rounded=0;rotation=0;fontSize=25;strokeWidth=2;" parent="WIyWlLk6GJQsqaUBKTNV-1" vertex="1">
          <mxGeometry x="-380" y="370.5" width="15" height="30" as="geometry" />
        </mxCell>
        <mxCell id="pbMIqYxpZXbtXTmgva8M-134" value="&lt;b&gt;1&lt;/b&gt;" style="text;html=1;align=center;verticalAlign=middle;whiteSpace=wrap;rounded=0;rotation=0;fontSize=25;strokeWidth=2;" parent="WIyWlLk6GJQsqaUBKTNV-1" vertex="1">
          <mxGeometry x="99" y="1191" width="15" height="30" as="geometry" />
        </mxCell>
        <mxCell id="pbMIqYxpZXbtXTmgva8M-135" value="&lt;b&gt;1..*&lt;/b&gt;" style="text;html=1;align=center;verticalAlign=middle;whiteSpace=wrap;rounded=0;rotation=0;fontSize=25;strokeWidth=2;" parent="WIyWlLk6GJQsqaUBKTNV-1" vertex="1">
          <mxGeometry x="1042" y="1408" width="24" height="30" as="geometry" />
        </mxCell>
        <mxCell id="pbMIqYxpZXbtXTmgva8M-136" value="&lt;b&gt;1..*&lt;/b&gt;" style="text;html=1;align=center;verticalAlign=middle;whiteSpace=wrap;rounded=0;rotation=0;fontSize=25;strokeWidth=2;" parent="WIyWlLk6GJQsqaUBKTNV-1" vertex="1">
          <mxGeometry x="-39" y="1687" width="24" height="30" as="geometry" />
        </mxCell>
        <mxCell id="pbMIqYxpZXbtXTmgva8M-137" value="&lt;b&gt;1..*&lt;/b&gt;" style="text;html=1;align=center;verticalAlign=middle;whiteSpace=wrap;rounded=0;rotation=0;fontSize=25;strokeWidth=2;" parent="WIyWlLk6GJQsqaUBKTNV-1" vertex="1">
          <mxGeometry x="402" y="1979" width="24" height="30" as="geometry" />
        </mxCell>
      </root>
    </mxGraphModel>
  </diagram>
</mxfile>
